<svg width="18" height="19" viewBox="0 0 18 19" fill="none" xmlns="http://www.w3.org/2000/svg">
<path d="M16.3262 9.03923V6.78923C16.3262 5.38909 16.3262 4.68903 16.0537 4.15425C15.814 3.68384 15.4316 3.30139 14.9611 3.06171C14.4264 2.78923 13.7263 2.78923 12.3262 2.78923H5.32617C3.92604 2.78923 3.22597 2.78923 2.6912 3.06171C2.22079 3.30139 1.83834 3.68384 1.59866 4.15425C1.32617 4.68903 1.32617 5.38909 1.32617 6.78922V13.7892C1.32617 15.1894 1.32617 15.8894 1.59866 16.4242C1.83834 16.8946 2.22079 17.2771 2.6912 17.5167C3.22597 17.7892 3.92604 17.7892 5.32617 17.7892H9.24284M16.3262 7.78923H1.32617M12.1595 1.12256V4.45589M5.49284 1.12256V4.45589M13.8262 16.9559V11.9559M11.3262 14.4559H16.3262" stroke="white" stroke-width="1.66667" stroke-linecap="round" stroke-linejoin="round"/>
</svg>
