<svg width="21" height="21" viewBox="0 0 21 21" fill="none" xmlns="http://www.w3.org/2000/svg">
<g id="calendar-plus-02">
<path id="Icon" d="M18.3262 10.0392V7.78923C18.3262 6.38909 18.3262 5.68903 18.0537 5.15425C17.814 4.68384 17.4316 4.30139 16.9611 4.06171C16.4264 3.78923 15.7263 3.78923 14.3262 3.78923H7.32617C5.92604 3.78923 5.22597 3.78923 4.6912 4.06171C4.22079 4.30139 3.83834 4.68384 3.59866 5.15425C3.32617 5.68903 3.32617 6.38909 3.32617 7.78922V14.7892C3.32617 16.1894 3.32617 16.8894 3.59866 17.4242C3.83834 17.8946 4.22079 18.2771 4.6912 18.5167C5.22597 18.7892 5.92604 18.7892 7.32617 18.7892H11.2428M18.3262 8.78923H3.32617M14.1595 2.12256V5.45589M7.49284 2.12256V5.45589M15.8262 17.9559V12.9559M13.3262 15.4559H18.3262" stroke="white" stroke-width="1.66667" stroke-linecap="round" stroke-linejoin="round"/>
</g>
</svg>
