<svg xmlns="http://www.w3.org/2000/svg" viewBox="0 0 750 500"><g id="freepik--background-complete--inject-2"><path d="M611.08,290.54S566,390.94,639.77,390.94s26-103.82,26-103.82,17.07-7.51-2.73-63.52-28.66-56-36.89-56c-10.39,0-20.07,24.25-13,61.47C613.13,229.06,587.18,275.51,611.08,290.54Z" style="fill:#ebebeb"></path><polygon points="646.32 457.53 639.21 306.28 632.1 457.53 646.32 457.53" style="fill:#a6a6a6"></polygon><polygon points="642.1 369.69 615.29 338.38 636.32 373.83 642.1 369.69" style="fill:#a6a6a6"></polygon><path d="M136.67,295.91s43.63,97.18-27.77,97.18S83.78,292.6,83.78,292.6s-16.53-7.27,2.65-61.47,27.73-54.21,35.69-54.21c10.06,0,19.43,23.47,12.56,59.49C134.68,236.41,159.8,281.37,136.67,295.91Z" style="fill:#dbdbdb"></path><polygon points="102.57 457.53 109.45 311.14 116.33 457.53 102.57 457.53" style="fill:#a6a6a6"></polygon><polygon points="106.65 372.52 132.6 342.21 112.25 376.53 106.65 372.52" style="fill:#a6a6a6"></polygon><path d="M278.54,295.91s-43.63,97.18,27.76,97.18S331.42,292.6,331.42,292.6s16.53-7.27-2.64-61.47-27.74-54.21-35.7-54.21c-10.06,0-19.42,23.47-12.56,59.49C280.52,236.41,255.4,281.37,278.54,295.91Z" style="fill:#dbdbdb"></path><polygon points="312.64 457.53 305.76 311.14 298.88 457.53 312.64 457.53" style="fill:#a6a6a6"></polygon><polygon points="308.55 372.52 282.61 342.21 302.96 376.53 308.55 372.52" style="fill:#a6a6a6"></polygon><path d="M574,288.57s22.75-9,40.81,22.4c18.52,32.22-4.69,53.45-23.12,40.81,0,0-14.44,30.34-43.34,23.12s-33.59-30.34-33.59-30.34-25.64,1.8-26.37-17.34,18.06-36.12,18.06-36.12,1.09-47.68,32.15-47.31S574,288.57,574,288.57Z" style="fill:#dbdbdb"></path><polygon points="552.88 457.53 546.38 315.66 539.87 457.53 552.88 457.53" style="fill:#a6a6a6"></polygon><polygon points="549.16 367.27 568.25 329.18 543.59 363.93 549.16 367.27" style="fill:#a6a6a6"></polygon><path d="M219.17,272.94s-24.86-9.87-44.59,24.47c-20.23,35.2,5.13,58.4,25.25,44.59,0,0,15.79,33.15,47.36,25.25s36.7-33.14,36.7-33.14,28,2,28.81-18.95S293,275.7,293,275.7s-1.18-52.09-35.12-51.69S219.17,272.94,219.17,272.94Z" style="fill:#ebebeb"></path><polygon points="242.26 457.53 249.36 302.54 256.46 457.53 242.26 457.53" style="fill:#a6a6a6"></polygon><polygon points="246.31 358.92 225.47 317.3 252.4 355.26 246.31 358.92" style="fill:#a6a6a6"></polygon><path d="M566.47,80.2c7.19,0,128.17.8,135.77.56.55,0,.84-.82.3-1.09-4.8-2.37-10.23-1.9-15.21-3.58-2.93-1-4.73-2.9-6.77-5.1a14,14,0,0,0-6.29-4.11,13.31,13.31,0,0,0-6.86-.21c-2.45.58-4.58,2-6.93,2.88-5.81,2.19-11.45.1-15.6-4.2-3.43-3.54-6.79-6.89-11.44-8.79a15.17,15.17,0,0,0-12.12-.17c-4.44,2-7.49,6-11.65,8.48-4.95,2.89-10.85,2.21-16.31,3.08s-9.65,5.47-14.44,8.11a10.11,10.11,0,0,1-5.21,1.62c-1.07,0-2.12-.32-3.18-.45-1.65-.2-3.21-.16-4.32,1.22C565.94,78.78,566,80.2,566.47,80.2Z" style="fill:#ebebeb"></path><path d="M52.78,59.42c5.25,0,93.57.58,99.13.41.39,0,.61-.6.21-.8-3.5-1.73-7.47-1.38-11.1-2.61-2.14-.72-3.46-2.12-4.94-3.72a10.2,10.2,0,0,0-4.6-3,9.64,9.64,0,0,0-5-.16,42.82,42.82,0,0,0-5.06,2.1c-4.24,1.6-8.37.08-11.4-3.06-2.49-2.59-5-5-8.35-6.42A11.12,11.12,0,0,0,92.82,42c-3.24,1.47-5.46,4.42-8.5,6.2-3.61,2.11-7.92,1.61-11.91,2.25s-7,4-10.54,5.92a7.49,7.49,0,0,1-3.81,1.18,23.13,23.13,0,0,1-2.32-.33,3.17,3.17,0,0,0-3.15.89C52.39,58.39,52.43,59.42,52.78,59.42Z" style="fill:#ebebeb"></path><path d="M425.22,136.61c5.25,0,93.58.58,99.13.4.4,0,.61-.6.21-.79-3.49-1.74-7.46-1.39-11.1-2.61-2.14-.72-3.45-2.12-4.94-3.73a10.2,10.2,0,0,0-4.6-3,9.74,9.74,0,0,0-5-.15c-1.79.42-3.35,1.45-5.06,2.1-4.24,1.6-8.36.08-11.39-3.06-2.5-2.59-5-5-8.36-6.43a11.05,11.05,0,0,0-8.84-.12c-3.24,1.47-5.47,4.42-8.51,6.19-3.61,2.11-7.92,1.61-11.91,2.25s-7,4-10.53,5.92a7.36,7.36,0,0,1-3.81,1.18c-.78,0-1.55-.23-2.32-.32-1.21-.15-2.35-.12-3.16.89C424.84,135.57,424.88,136.61,425.22,136.61Z" style="fill:#ebebeb"></path><path d="M253.38,87.57c5.25,0,93.58.59,99.13.41.4,0,.61-.6.22-.8-3.5-1.73-7.47-1.38-11.11-2.61-2.14-.72-3.45-2.12-4.94-3.72a10.22,10.22,0,0,0-4.59-3,9.68,9.68,0,0,0-5-.16,42.82,42.82,0,0,0-5.06,2.1c-4.24,1.6-8.36.08-11.39-3.06-2.5-2.59-5-5-8.36-6.42a11.05,11.05,0,0,0-8.84-.12c-3.24,1.46-5.47,4.42-8.51,6.19C281.31,78.49,277,78,273,78.63s-7,4-10.53,5.92a7.55,7.55,0,0,1-3.81,1.18,22.72,22.72,0,0,1-2.32-.33,3.18,3.18,0,0,0-3.16.89C253,86.54,253,87.57,253.38,87.57Z" style="fill:#ebebeb"></path><path d="M386.34,264c5.25,0,93.58.58,99.13.41.4,0,.61-.6.22-.8-3.5-1.73-7.47-1.38-11.11-2.61-2.14-.72-3.45-2.12-4.94-3.72a10.24,10.24,0,0,0-4.59-3,9.79,9.79,0,0,0-5-.15c-1.79.43-3.34,1.45-5.05,2.1-4.25,1.6-8.37.08-11.4-3.06-2.5-2.59-5-5-8.35-6.43a11.12,11.12,0,0,0-8.85-.12c-3.24,1.47-5.46,4.42-8.51,6.2-3.6,2.11-7.92,1.61-11.9,2.24s-7.05,4-10.54,5.93a7.52,7.52,0,0,1-3.81,1.18,22.72,22.72,0,0,1-2.32-.33,3.19,3.19,0,0,0-3.16.89C386,262.93,386,264,386.34,264Z" style="fill:#ebebeb"></path><path d="M99.74,113.29c.1.3,139.21,0,137.46,0-.8,0,1.21-1.2.43-1.58-4.53-2.25-9.48-2.31-14.41-2.77a22.26,22.26,0,0,1-8.43-2c-2.62-1.37-4.25-3.76-6.11-6a26.18,26.18,0,0,0-23.76-9c-9.89,1.55-17.69,9.09-27.6,10.47-5.95.84-11.58-1.47-17.39-2.28a21.36,21.36,0,0,0-13.07,2.39c-3.14,1.56-6,2.87-9.58,3.11-2.73.19-5.46-.12-8.19-.15a18.38,18.38,0,0,0-12,4.82C96.6,110.69,95.2,113.29,99.74,113.29Z" style="fill:#ebebeb"></path><path d="M504.71,164.81c.1.29,139.21,0,137.46,0-.8,0,1.21-1.2.43-1.59-4.53-2.25-9.48-2.31-14.41-2.76a22.26,22.26,0,0,1-8.43-2c-2.62-1.38-4.25-3.76-6.11-6a26.13,26.13,0,0,0-23.76-9c-9.89,1.55-17.69,9.08-27.6,10.47-5.95.83-11.58-1.47-17.39-2.28A21.29,21.29,0,0,0,531.83,154c-3.14,1.56-6,2.87-9.58,3.11-2.73.2-5.46-.12-8.19-.14a18.36,18.36,0,0,0-12,4.81C501.57,162.2,500.17,164.81,504.71,164.81Z" style="fill:#ebebeb"></path><path d="M607.31,107.64a20.1,20.1,0,0,1-8.26,2.29,20.13,20.13,0,0,1-3.43-7.84c-.76-3.7,1.37-7.91,4.75-7.43,3.74.52,3,6.18,3,6.18s4-4.16,6.7-1.57C612.55,101.62,610.66,105.9,607.31,107.64Z" style="fill:#ebebeb"></path><path d="M252,129.94a20,20,0,0,1-8.25,2.29,20.22,20.22,0,0,1-3.43-7.84c-.76-3.7,1.36-7.92,4.74-7.44,3.74.53,3,6.18,3,6.18s4-4.15,6.7-1.57C257.24,123.91,255.34,128.19,252,129.94Z" style="fill:#ebebeb"></path><path d="M491.44,69.4a12.59,12.59,0,0,1-2.54,4.71,12.5,12.5,0,0,1-5-1.85c-2-1.25-3-4-1.3-5.35,1.85-1.45,4.09,1.32,4.09,1.32s-.16-3.58,2.18-3.7C491,64.43,492.1,67.14,491.44,69.4Z" style="fill:#ebebeb"></path><path d="M597.72,130.75A33.06,33.06,0,0,1,587.08,140a33.06,33.06,0,0,1-10.64-9.23c-3.75-5-3.56-12.72,1.8-14.4,5.92-1.86,8.84,7.06,8.84,7.06s2.95-9,8.84-7.06C601.26,118.09,601.47,125.79,597.72,130.75Z" style="fill:#ebebeb"></path><path d="M148.5,82.64A12.59,12.59,0,0,1,146,87.35a12.5,12.5,0,0,1-5-1.85c-2-1.25-3-4-1.3-5.35,1.85-1.45,4.08,1.32,4.08,1.32s-.15-3.58,2.19-3.69C148.05,77.68,149.16,80.38,148.5,82.64Z" style="fill:#ebebeb"></path><path d="M173.85,196.08a33,33,0,0,1-10.65,9.23,33.06,33.06,0,0,1-10.64-9.23c-3.74-5-3.56-12.72,1.8-14.4,5.93-1.86,8.84,7.06,8.84,7.06s3-9,8.85-7.06C177.39,183.42,177.59,191.12,173.85,196.08Z" style="fill:#ebebeb"></path></g><g id="freepik--Plants--inject-2"><path d="M265.93,457.6h-57s.13-8.48,5.73-10.74a7.64,7.64,0,0,1,8.94,2.15s2.28-15.6,12.72-15.6,15.44,13.45,15.44,13.45,2.34-4.06,8.13-3.31S265.93,457.6,265.93,457.6Z" style="fill:#455a64"></path><path d="M583.4,457.6s-1.75-8.15-5.24-9.41-5.61,2.4-5.61,2.4-.82-7.79-5.77-10.12-8.66,2.45-8.66,2.45-3.8-9.89-10.58-9.89-10.2,14.46-10.2,14.46-4-4.31-8.11-1.87-4.1,12-4.1,12Z" style="fill:#37474f"></path><path d="M219.15,457.6H166.6s1.73-7.41,5.22-7.94,5.1,2.92,5.1,2.92-.16-10.34,6.35-12.1,12,7.37,12,7.37,4.08-5.2,9.64-4.87,7,8.93,7,8.93S216.92,448.93,219.15,457.6Z" style="fill:#37474f"></path><path d="M528.9,457.6H496.61s.07-4.81,3.25-6.08a4.32,4.32,0,0,1,5.06,1.21s1.29-8.84,7.21-8.84,8.74,7.63,8.74,7.63a4.54,4.54,0,0,1,4.61-1.88C528.77,450.07,528.9,457.6,528.9,457.6Z" style="fill:#455a64"></path></g><g id="freepik--Floor--inject-2"><rect x="71.7" y="457.6" width="606.61" height="5.38" style="fill:#a6a6a6"></rect><path d="M102.91,457.6a7.3,7.3,0,0,1,0,5.38,7.25,7.25,0,0,1,0-5.38Z" style="fill:#263238"></path><path d="M139.19,457.6a7.3,7.3,0,0,1,0,5.38,7.25,7.25,0,0,1,0-5.38Z" style="fill:#263238"></path><path d="M175.46,457.6a7.25,7.25,0,0,1,0,5.38,7.35,7.35,0,0,1,0-5.38Z" style="fill:#263238"></path><path d="M211.74,457.6a7.25,7.25,0,0,1,0,5.38,7.3,7.3,0,0,1,0-5.38Z" style="fill:#263238"></path><path d="M248,457.6a7.25,7.25,0,0,1,0,5.38,7.3,7.3,0,0,1,0-5.38Z" style="fill:#263238"></path><path d="M284.3,457.6a7.25,7.25,0,0,1,0,5.38,7.3,7.3,0,0,1,0-5.38Z" style="fill:#263238"></path><path d="M320.58,457.6a7.25,7.25,0,0,1,0,5.38,7.3,7.3,0,0,1,0-5.38Z" style="fill:#263238"></path><path d="M356.86,457.6a7.3,7.3,0,0,1,0,5.38,7.3,7.3,0,0,1,0-5.38Z" style="fill:#263238"></path><path d="M393.14,457.6a7.3,7.3,0,0,1,0,5.38,7.3,7.3,0,0,1,0-5.38Z" style="fill:#263238"></path><path d="M429.42,457.6a7.3,7.3,0,0,1,0,5.38,7.25,7.25,0,0,1,0-5.38Z" style="fill:#263238"></path><path d="M465.7,457.6a7.3,7.3,0,0,1,0,5.38,7.25,7.25,0,0,1,0-5.38Z" style="fill:#263238"></path><path d="M502,457.6a7.3,7.3,0,0,1,0,5.38,7.25,7.25,0,0,1,0-5.38Z" style="fill:#263238"></path><path d="M538.26,457.6a7.3,7.3,0,0,1,0,5.38,7.25,7.25,0,0,1,0-5.38Z" style="fill:#263238"></path><path d="M574.54,457.6a7.35,7.35,0,0,1,0,5.38,7.25,7.25,0,0,1,0-5.38Z" style="fill:#263238"></path><path d="M610.81,457.6a7.25,7.25,0,0,1,0,5.38,7.3,7.3,0,0,1,0-5.38Z" style="fill:#263238"></path><path d="M647.09,457.6a7.25,7.25,0,0,1,0,5.38,7.3,7.3,0,0,1,0-5.38Z" style="fill:#263238"></path><path d="M70.54,463c195.06-.61,413.86-.61,608.92,0-195.06.62-413.86.61-608.92,0Z" style="fill:#263238"></path></g><g id="freepik--speech-bubble--inject-2"><path d="M448.62,65.27a25.59,25.59,0,0,1-40.85,20.54L395.23,89l5.22-11.68a25.6,25.6,0,1,1,48.17-12.07Z" style="fill:#fff"></path><path d="M448.62,65.27c-.13,21.64-24.81,33-40.76,20.89l-12.52,3.28-.88.23.37-.83L400,77.14l0,.43c-5.89-10.48-3-24.64,6.27-32.16,16.83-13.87,42.26-1.94,42.32,19.86Zm0,0c.08-16.36-15.93-28.86-31.75-24.54a25.29,25.29,0,0,0-16,36.38l.12.21-.1.22L395.63,89.2l-.51-.61,12.56-3.12c17.12,12.37,40.52,1.16,40.94-20.2Z" style="fill:#263238"></path><path d="M436.44,71A41.56,41.56,0,0,1,423.1,82.56,41.59,41.59,0,0,1,409.77,71c-4.7-6.21-4.46-15.94,2.25-18,7.43-2.33,11.08,8.85,11.08,8.85s3.7-11.25,11.08-8.85C440.88,55.12,441.13,64.78,436.44,71Z" style="fill:#49ADCA"></path><polygon points="417.86 77.65 415.84 69.22 414.52 72.2 406.34 72.2 406.34 71.25 413.9 71.25 416.11 66.28 417.69 72.85 419.92 59.23 421.89 70 423.44 65.5 425.9 72.87 426.44 71.24 439.88 71.24 439.88 72.19 427.13 72.19 425.9 75.87 423.43 68.46 421.6 73.73 419.97 64.8 417.86 77.65" style="fill:#fff"></polygon></g><g id="freepik--character-3--inject-2"><path d="M216.67,148.15c-16.68,17.3-39.4,33.23-45.45,28.4-8.14-6.5-20.71-26.54-24.92-38.66-1.23-3.56,26.67-12.62,28-8.82,1.61,4.6,11,20.54,11.26,20.94.62.84,19.19-10.24,28.52-13.7C225,132.26,224.46,140.06,216.67,148.15Z" style="fill:#eb9481"></path><path d="M142.44,123.73c0,6.27,4.93,19.11,7.32,21.75s24.5-5.07,25.66-8.53-.39-24.58-4.36-29.58S142.47,117.24,142.44,123.73Z" style="fill:#eb9481"></path><rect x="185.97" y="113.89" width="5.12" height="5.89" transform="matrix(-0.32, -0.95, 0.95, -0.32, 137.33, 332.64)" style="fill:#dbdbdb"></rect><rect x="180.19" y="114.86" width="8.35" height="6.72" transform="translate(130.52 330.51) rotate(-108.44)" style="fill:#c7c7c7"></rect><path d="M170.14,112.51,141,122.24l6.27,18.82,29.19-9.73c5.77-1.93,9-7.05,7.09-12.82S175.92,110.58,170.14,112.51Z" style="fill:#49ADCA"></path><path d="M170.14,112.51,141,122.24l6.27,18.82,29.19-9.73c5.77-1.93,9-7.05,7.09-12.82S175.92,110.58,170.14,112.51Z" style="opacity:0.1"></path><path d="M181.67,120.25a.77.77,0,1,0,.49,1.46.77.77,0,1,0-.49-1.46Z" style="fill:#fff"></path><path d="M172,113.1a.77.77,0,0,0-.49,1,.78.78,0,0,0,1,.49.79.79,0,0,0,.49-1A.78.78,0,0,0,172,113.1Z" style="fill:#fff"></path><path d="M174,121.67a.79.79,0,0,0-.49,1,.77.77,0,1,0,1.47-.49A.78.78,0,0,0,174,121.67Z" style="fill:#fff"></path><path d="M166.75,123.28a.76.76,0,0,0-.49,1,.78.78,0,0,0,1,.49.79.79,0,0,0,.49-1A.77.77,0,0,0,166.75,123.28Z" style="fill:#fff"></path><path d="M162,133.3a.77.77,0,1,0,.49,1.46.77.77,0,1,0-.49-1.46Z" style="fill:#fff"></path><path d="M168.71,131.86a.78.78,0,0,0-.49,1,.79.79,0,0,0,1,.49.78.78,0,0,0,.49-1A.76.76,0,0,0,168.71,131.86Z" style="fill:#fff"></path><path d="M175.56,129.37a.77.77,0,1,0,1,.49A.78.78,0,0,0,175.56,129.37Z" style="fill:#fff"></path><path d="M178.73,124.78a.77.77,0,0,0-.49,1,.77.77,0,1,0,1.46-.49A.77.77,0,0,0,178.73,124.78Z" style="fill:#fff"></path><path d="M171.21,126.48a.77.77,0,1,0,.49,1.46.77.77,0,1,0-.49-1.46Z" style="fill:#fff"></path><path d="M176.73,116.66a.77.77,0,1,0,1,.49A.79.79,0,0,0,176.73,116.66Z" style="fill:#fff"></path><path d="M169.31,118.15a.77.77,0,1,0,.49,1.46.77.77,0,1,0-.49-1.46Z" style="fill:#fff"></path><path d="M164.26,128.36a.77.77,0,1,0,1,.48A.76.76,0,0,0,164.26,128.36Z" style="fill:#fff"></path><path d="M155.83,122.39a.78.78,0,0,0-.49,1,.77.77,0,1,0,.49-1Z" style="fill:#fff"></path><path d="M150.35,124.34a.77.77,0,1,0,.49,1.46.77.77,0,1,0-.49-1.46Z" style="fill:#fff"></path><path d="M158.19,129.89a.77.77,0,0,0-.49,1,.77.77,0,1,0,1.47-.49A.77.77,0,0,0,158.19,129.89Z" style="fill:#fff"></path><path d="M150.79,136.33a.76.76,0,0,0-.49,1,.77.77,0,1,0,1.46-.49A.76.76,0,0,0,150.79,136.33Z" style="fill:#fff"></path><path d="M160.22,125a.77.77,0,1,0,.49,1.46.77.77,0,1,0-.49-1.46Z" style="fill:#fff"></path><path d="M154.24,126.89a.77.77,0,0,0-.49,1,.77.77,0,1,0,1.46-.49A.77.77,0,0,0,154.24,126.89Z" style="fill:#fff"></path><path d="M148.3,128.87a.77.77,0,1,0,.49,1.47.79.79,0,0,0,.49-1A.78.78,0,0,0,148.3,128.87Z" style="fill:#fff"></path><path d="M144.31,126.06a.77.77,0,1,0,1,.49A.76.76,0,0,0,144.31,126.06Z" style="fill:#fff"></path><path d="M156.41,134.56a.77.77,0,1,0,1,.49A.76.76,0,0,0,156.41,134.56Z" style="fill:#fff"></path><path d="M152.54,131.77a.77.77,0,1,0,1,.49A.78.78,0,0,0,152.54,131.77Z" style="fill:#fff"></path><path d="M145.89,121.65a.78.78,0,0,0-.49,1,.77.77,0,0,0,1.47-.49A.77.77,0,0,0,145.89,121.65Z" style="fill:#fff"></path><path d="M146.73,133.53a.77.77,0,1,0,1,.49A.77.77,0,0,0,146.73,133.53Z" style="fill:#fff"></path><path d="M157.55,117.64a.77.77,0,0,0-.49,1,.77.77,0,1,0,1.46-.49A.77.77,0,0,0,157.55,117.64Z" style="fill:#fff"></path><path d="M151.79,119.56a.78.78,0,0,0-.49,1,.79.79,0,0,0,1,.49.78.78,0,0,0,.49-1A.76.76,0,0,0,151.79,119.56Z" style="fill:#fff"></path><path d="M161.79,120.23a.78.78,0,0,0-.49,1,.77.77,0,1,0,.49-1Z" style="fill:#fff"></path><path d="M164.12,115a.77.77,0,0,0,.49,1.47.77.77,0,0,0-.49-1.47Z" style="fill:#fff"></path><path d="M175.62,116.3c-1.73,2.83-4.08-.83-4.08-.83s2.12,6.09-.8,8.32-5.49-2.38-5.69-2.7c.11.32,1.9,6-1.26,7.91s-5.2-3-5.32-3.32c0,.34,0,4.8-2.71,5.73-4.7,1.6-5.06-9.81-8.11-12.43,0,0-4.85,2.59-5,2.7,0,0-.76-8.79,3-12.7a3.47,3.47,0,0,1,4.3-.61s-.57-3.48,1.87-5.09c1.25-.82,3.68.46,3.68.46a4.35,4.35,0,0,1,1.92-4.1c1.8-1,4,.4,4,.4s.92-2.84,3.1-3.3C168.88,95.79,179.32,110.23,175.62,116.3Z" style="fill:#eb9481"></path><path d="M161.75,100.22a0,0,0,0,1,.07-.07,30.87,30.87,0,0,1,9.87,15.51c.05.19-.24.35-.34.15A62.86,62.86,0,0,0,161.75,100.22Z" style="fill:#263238"></path><path d="M155.48,103.65c0-.06,0-.13.09-.08a28.91,28.91,0,0,1,9.73,17.58c0,.24-.19.48-.24.21C164.14,116.76,159.24,108,155.48,103.65Z" style="fill:#263238"></path><path d="M158.36,126.19c-1.07-6.67-4.18-12.32-8.21-17.67-.05-.07,0-.13.11-.09,2.68,2.08,4.9,5.76,6.37,8.76a17.81,17.81,0,0,1,2,9C158.59,126.28,158.39,126.34,158.36,126.19Z" style="fill:#263238"></path><path d="M171.54,115.47a19.17,19.17,0,0,1,.56,3.67,6.8,6.8,0,0,1-.58,3.5,2.24,2.24,0,0,1-1.21,1.06,3.16,3.16,0,0,1-1.64.14,3.94,3.94,0,0,1-2.53-2l-1.36-2.36.46,2.69a11.21,11.21,0,0,1,0,3.61,4,4,0,0,1-1.61,2.84,2.29,2.29,0,0,1-2.86-.16,6.87,6.87,0,0,1-1.83-2.93l-1.08-3,0,3.21a10.33,10.33,0,0,1-.31,2.65,4.38,4.38,0,0,1-1.19,2.19,2.07,2.07,0,0,1-2.13.38,4.58,4.58,0,0,1-1.76-1.83,35.65,35.65,0,0,1-2.26-5.11c-.35-.88-.69-1.76-1.08-2.63a6.72,6.72,0,0,0-1.55-2.37,7.14,7.14,0,0,1,1.3,2.47c.32.88.6,1.78.88,2.69a30.22,30.22,0,0,0,2,5.34,5.25,5.25,0,0,0,2,2.26,2.9,2.9,0,0,0,3.16-.45,5.33,5.33,0,0,0,1.55-2.67,11.65,11.65,0,0,0,.39-3l-1,.17a7.88,7.88,0,0,0,2.13,3.48,3.37,3.37,0,0,0,2.07.84,3.65,3.65,0,0,0,2.11-.64,5,5,0,0,0,2-3.59,12,12,0,0,0-.11-4l-.9.33a4.73,4.73,0,0,0,3.26,2.33,4.08,4.08,0,0,0,2-.28,2.93,2.93,0,0,0,1.48-1.42,7,7,0,0,0,.38-3.81A16.14,16.14,0,0,0,171.54,115.47Z" style="fill:#263238"></path><path d="M176.62,136.34s11.35-24-.22-23.88c-3.44.05-17.5,4.36-16.69,7.2,1,3.67,7.25,3,11.08,1.9,0,0-5,7.64-.74,12.71A6.59,6.59,0,0,0,176.62,136.34Z" style="fill:#eb9481"></path><path d="M177.36,112.5a14.13,14.13,0,0,0-4.05.18,29.91,29.91,0,0,0-4,.92,47.63,47.63,0,0,0-7.61,2.94,7.79,7.79,0,0,0-1.78,1.23,2.65,2.65,0,0,0-.7,1,2.13,2.13,0,0,0-.15.67,2.09,2.09,0,0,0,.08.67,3.5,3.5,0,0,0,1.44,1.89,6.55,6.55,0,0,0,2.06.81,12.36,12.36,0,0,0,4.2.06,28.44,28.44,0,0,0,4-.86l-.51-.72a16.51,16.51,0,0,0-1.36,2.81,15.34,15.34,0,0,0-.8,3,10.67,10.67,0,0,0,0,3.09,7.91,7.91,0,0,0,1,2.88,8.8,8.8,0,0,1-.67-2.92,10.75,10.75,0,0,1,.27-2.94,14.44,14.44,0,0,1,.92-2.81,16,16,0,0,1,1.42-2.57l.69-1-1.2.27a30.87,30.87,0,0,1-3.89.71,11.73,11.73,0,0,1-3.84-.1c-1.18-.26-2.38-.9-2.65-1.9s.88-1.73,2-2.34a37.06,37.06,0,0,1,3.59-1.71c1.23-.53,2.46-1,3.72-1.49A25.81,25.81,0,0,1,177.36,112.5Z" style="fill:#263238"></path><path d="M340.22,443.35c1-.14,18.64-1.77,19.95-3.33,13.28-15.77,29.59-54.57,29.76-56.44.14-1.17-17.81-12.12-17.91-12.2-1.92-1.6-37.4-25.44-37.4-25.44l-26.86,36,36.65,24,.61.44a113.73,113.73,0,0,1-1.71,20c-.25,1.35-5.11,7.69-5.34,8.81C337.22,439,338.86,443.54,340.22,443.35Z" style="fill:#eb9481"></path><path d="M340.22,443.34c1-.14,18.64-1.76,20-3.33,13.27-15.76,29.58-54.56,29.76-56.43.13-1.17-17.82-12.12-17.92-12.2-.47-.39-3-2.14-6.51-4.55l-26.32,35.74,5.23,3.43.6.44a115.56,115.56,0,0,1-1.7,20c-.27,1.34-5.12,7.68-5.35,8.81C337.22,439,338.85,443.54,340.22,443.34Z" style="fill:#ebebeb"></path><path d="M339.58,443.71c.62.3,19.93-2.28,21-3.61C371.24,427.38,391,385.26,391,383c0-1.17-9.74-7.75-20.19-13l-26,36.47s-.1,12.88-1.59,20c-.34,1.62-5.16,7.47-5.51,8.66C336.62,438.84,338.69,443.27,339.58,443.71Z" style="fill:#49ADCA"></path><path d="M339.58,443.71c.62.3,19.93-2.28,21-3.61C371.24,427.38,391,385.26,391,383c0-1.17-9.74-7.75-20.19-13l-26,36.47s-.1,12.88-1.59,20c-.34,1.62-5.16,7.47-5.51,8.66C336.62,438.84,338.69,443.27,339.58,443.71Z" style="opacity:0.1"></path><path d="M339.61,433.41a11.7,11.7,0,0,1,8.57-2.85,10,10,0,0,1,6.93,3.46c0,.07-.08.17-.14.11-3.91-3.49-10.68-3.83-15.26-.59A.08.08,0,1,1,339.61,433.41Z" style="fill:#263238"></path><path d="M373.83,382.15c2.67-4.4,9.5-.25,6.83,4.15S371.15,386.55,373.83,382.15Z" style="fill:#263238"></path><path d="M337.29,412.12a24.85,24.85,0,0,0,7.67-2.87c.17-.09.34-.17.5-.27,1-.53,2-1.05,3-1.53a.43.43,0,0,0,.22-.28.56.56,0,0,0-.16-.62.12.12,0,0,0,0-.19l-.43-.2-.14-.07s0,0,0,0l-.54-.22a13.48,13.48,0,0,0-1.31-.46,24.14,24.14,0,0,0-9.84-1.12c-2.43.28-5.51,1.91-5,4.89C331.77,412,335,412.47,337.29,412.12Zm-3.41-1.67c-4.13-2.82,1.41-4.89,3.21-5a25.68,25.68,0,0,1,3.51.06,42.49,42.49,0,0,1,5,.67c.61.12,1.23.22,1.85.33h0l.28,0-.28.13-.3.13c-.73.32-1.45.65-2.17,1L342.49,409C340.39,410,336.16,412,333.88,410.45Z" style="fill:#263238"></path><path d="M348.66,407.2v0c1-1.28,2.1-2.54,3.13-3.84a23,23,0,0,0,3.72-6.08c.78-2.12,1-5.19-1.38-6.38a2,2,0,0,0-.29-.15c-2.78-1.14-5,1.52-5.77,3.85a23.81,23.81,0,0,0-1,9,16.3,16.3,0,0,0,.29,2.29,2.82,2.82,0,0,0,.12.62s0,0,0,0a.24.24,0,0,0,0,.15,2.57,2.57,0,0,0,.06.35c0,.09.11.12.18.09A.56.56,0,0,0,348.66,407.2Zm-.23-1.59c-.14.18-.26.36-.38.55s-.11.13-.16.21c0-.08,0-.18,0-.27v0c.06-1.44.08-2.88.18-4.32.05-.89.12-1.76.25-2.64a27,27,0,0,1,.69-3.45c.42-1.45,2.66-5.14,4.51-3.69a3.77,3.77,0,0,1,1.06,1.57c1.05,2.56-1.81,6.29-3.2,8.15C350.41,403,349.39,404.29,348.43,405.61Z" style="fill:#263238"></path><path d="M343.71,412c2.18-4,6.18-7.88,10.84-8.54.18,0,.22.23.09.31a62.93,62.93,0,0,0-10.48,8.58A.29.29,0,0,1,343.71,412Z" style="fill:#263238"></path><path d="M343.19,415.72c2.18-4,6.18-7.88,10.84-8.54.18,0,.22.23.09.32a62.87,62.87,0,0,0-10.48,8.57A.29.29,0,0,1,343.19,415.72Z" style="fill:#263238"></path><path d="M342.67,419.49c2.18-4,6.18-7.89,10.84-8.55.18,0,.22.23.09.32a62.87,62.87,0,0,0-10.48,8.57A.28.28,0,0,1,342.67,419.49Z" style="fill:#263238"></path><path d="M342.15,423.25c2.17-4,6.18-7.89,10.84-8.55.18,0,.22.24.09.32a63.37,63.37,0,0,0-10.48,8.57A.28.28,0,0,1,342.15,423.25Z" style="fill:#263238"></path><path d="M339.05,441.09c5.19-1.45,10.62-2.11,15.86-3.38l1.84-.45a2.82,2.82,0,0,0,1.79-.82,29.6,29.6,0,0,0,1.94-3.38c1.3-2.29,2.59-4.6,3.88-6.9,5.17-9.27,10.19-18.61,15.16-28q2.1-4,4.22-7.94c1.41-2.65,3-5.2,4.41-7.85a.08.08,0,1,1,.15.07c-1.16,2.46-2.16,5-3.37,7.44s-2.41,4.9-3.65,7.32q-3.72,7.23-7.58,14.37t-7.82,14.23c-1.33,2.38-2.68,4.76-4,7.13-.65,1.14-1.3,2.29-2,3.43a3.27,3.27,0,0,1-2.25,1.78c-6.06,1.46-12.35,2.2-18.47,3.38C338.91,441.59,338.79,441.16,339.05,441.09Z" style="fill:#263238"></path><path d="M211,191.44s-3.75,32.08,2.87,39.39c0,0,22.44,78.48,28.29,96,6.42,19.26,84.44,67.55,84.44,67.55l26.18-36.21S335.07,343.33,317.12,330c-13-9.62-28.25-16-28.34-16.8-1.34-10.39-24.4-75.83-23.76-77.61,7.32-20.23-4.52-44.18-4.52-44.18Z" style="fill:#37474f"></path><path d="M213.87,230.83s9.41,32.71,16.41,56.7L265,235.62l0-.11c7.24-20.2-4.56-44.07-4.56-44.07H209.18S207.26,223.52,213.87,230.83Z" style="fill:#263238"></path><path d="M76,429.81c1.9,1.67,65.23,28.12,68.28,27.59.51-.08,4-10.4,8.88-22.27,6-14.77,13.49-31.71,13.49-31.71l-39.26-13.6-14.14,30.23s-28,.69-31.27,1.63S74.07,428.15,76,429.81Z" style="fill:#eb9481"></path><path d="M155.12,430.27c-.67,1.63-1.34,3.26-2,4.86-4.83,11.87-8.36,22.19-8.88,22.27a12.92,12.92,0,0,1-3.4-.85l-1.16-.39-.85-.29h0l-.9-.31h0l-2-.72c-1-.38-2.17-.81-3.37-1.26l-1-.39c-3.52-1.35-7.54-2.94-11.79-4.64l-1.15-.47-3.33-1.34-3-1.24C95,438.43,77,430.69,76,429.81c-1.31-1.13.45-4.1,2.74-6.16.26-.23.53-.46.8-.66a9,9,0,0,1,1.65-1c.17-.08.35-.15.52-.21l.27-.09a35,35,0,0,1,5.15-.57l.59,0,1.12-.07,2.49-.14,1.32-.07,1.35-.06,1.37-.07c2.77-.12,5.62-.23,8.21-.31l1.27,0,.62,0,1.76,0,.55,0,1,0,1,0,2.53-.07.94,0,1.39-6.3,1.31.54Z" style="fill:#ebebeb"></path><path d="M75.71,429.67c1.9,1.65,65.52,28.79,68.56,28.28,1.15-.19,4.78-10.62,8.41-21.72L112.82,419.6s-27.87,1-31.14,2S73.82,428,75.71,429.67Z" style="fill:#49ADCA"></path><path d="M77.67,427.52c10.68,4.16,53.34,21.94,63.58,26.86.08,0,.06.1,0,.07-10.67-3.89-53.19-22-63.62-26.76C77.38,427.59,77.45,427.43,77.67,427.52Z" style="fill:#263238"></path><path d="M86.68,421a9.2,9.2,0,0,1,5.24,5.22,8.89,8.89,0,0,1,0,6.63c0,.06-.15,0-.13,0a10.64,10.64,0,0,0-5.18-11.67A.07.07,0,0,1,86.68,421Z" style="fill:#263238"></path><path d="M109.06,419.27c4.25,1.71,8.53,5.26,9.72,9.81,0,.18-.21.24-.31.13a63.75,63.75,0,0,0-9.7-9.45A.29.29,0,0,1,109.06,419.27Z" style="fill:#263238"></path><path d="M105.26,419.18c4.26,1.71,8.54,5.25,9.72,9.81,0,.18-.21.24-.31.12a63.69,63.69,0,0,0-9.7-9.44A.29.29,0,0,1,105.26,419.18Z" style="fill:#263238"></path><path d="M101.47,419.09c4.25,1.71,8.53,5.25,9.71,9.81,0,.18-.21.24-.3.12a62.84,62.84,0,0,0-9.71-9.44A.29.29,0,0,1,101.47,419.09Z" style="fill:#263238"></path><path d="M97.67,419c4.25,1.71,8.53,5.25,9.71,9.81.05.17-.2.24-.3.12a63.22,63.22,0,0,0-9.7-9.44A.29.29,0,0,1,97.67,419Z" style="fill:#263238"></path><path d="M142.75,443.22c4.74,2,1.65,9.37-3.1,7.37S138,441.22,142.75,443.22Z" style="fill:#263238"></path><path d="M107,412.41a24.87,24.87,0,0,0,3.71,7.29l.33.48c.64.93,1.27,1.87,1.86,2.79a.4.4,0,0,0,.3.19.58.58,0,0,0,.6-.23.12.12,0,0,0,.19-.05c0-.15.09-.29.14-.45l.06-.15h0a3.92,3.92,0,0,1,.16-.56c.11-.44.22-.89.3-1.35a24.15,24.15,0,0,0,0-9.91c-.55-2.38-2.52-5.26-5.41-4.37C106.48,406.91,106.34,410.13,107,412.41Zm1.27-3.57c2.34-4.43,5,.84,5.36,2.62a25.46,25.46,0,0,1,.34,3.49,45.11,45.11,0,0,1-.09,5.07c-.06.63-.09,1.25-.12,1.88,0,0,0,0,0,0s0,.2,0,.29l-.16-.26a2.88,2.88,0,0,0-.16-.29c-.41-.69-.82-1.36-1.24-2s-1-1.6-1.49-2.4C109.43,415.25,106.94,411.27,108.22,408.84Z" style="fill:#263238"></path><path d="M113.12,423.15h0c1.38.86,2.77,1.8,4.17,2.68a23.13,23.13,0,0,0,6.46,3c2.2.54,5.27.37,6.19-2.09a2.65,2.65,0,0,0,.11-.3c.82-2.9-2.08-4.81-4.48-5.31a24.16,24.16,0,0,0-9,0,15.91,15.91,0,0,0-2.24.55,2.2,2.2,0,0,0-.6.19s0,0,0,0a.2.2,0,0,0-.14.06,1.62,1.62,0,0,0-.34.1.14.14,0,0,0-.07.19A.56.56,0,0,0,113.12,423.15Zm1.56-.4c-.2-.12-.39-.22-.6-.32a1,1,0,0,0-.23-.13,2.64,2.64,0,0,1,.28,0h0c1.44-.1,2.86-.24,4.31-.31.89,0,1.76-.08,2.65,0a25.56,25.56,0,0,1,3.5.3c1.49.25,5.42,2.06,4.18,4.06a3.66,3.66,0,0,1-1.44,1.23c-2.42,1.34-6.45-1.08-8.46-2.26C117.48,424.42,116.1,423.55,114.68,422.75Z" style="fill:#263238"></path><path d="M122.4,400.44l39,15.08a373.4,373.4,0,0,0,23-55.19c6.12-19.31,12.65-40.7,13.44-42,2.59-4.33,49.58-65.35,64-81.06,19-20.67-.15-45.86-.15-45.86l-52.44,0-.26,18.92c-4.14,6.66-47.3,69.85-52.52,85.29C147.29,322.61,122.4,400.44,122.4,400.44Z" style="fill:#37474f"></path><path d="M225.68,281.62c-3.65,4.67-7.2,9.25-10.49,13.51L202.9,276.62l9.6-14.81Z" style="fill:#49ADCA"></path><path d="M211.51,299.93,209,303.15l-11.83-17.79,2.27-3.52Z" style="fill:#49ADCA"></path><path d="M219.82,201.38a48.52,48.52,0,0,1-10.9,9,48.74,48.74,0,0,1,10.9-9Z" style="fill:#37474f"></path><path d="M223.77,98.13a4.66,4.66,0,0,1,1.85-.28c2.88.14,5.09,2.28,6.64,4.5,1.65,2.39,2.86,5.32,5.26,7.07a4.77,4.77,0,0,0,3.23,1.06,4.42,4.42,0,0,0,3.05-2.06c.79-1.07,1.49-2.52,2.87-2.94a3.75,3.75,0,0,1,3.28.84c2.36,1.81,2.67,5.19,4.06,7.66a15.06,15.06,0,0,0,6.46,6.11,14.8,14.8,0,0,0,12.21.28c1.41-.62,2.66-1.54,4-2.22a5.32,5.32,0,0,1,4.24-.53c1.07.43,3.61,3.87,3.53,9.09,0,.38.67.36.81,0a19.48,19.48,0,0,0,.72-2.2,20.12,20.12,0,0,0-4-17.9,20.94,20.94,0,0,0-8.22-5.94,34.2,34.2,0,0,1-5.23-2.28,10.71,10.71,0,0,1-3.42-3.6c-1.66-2.76-2.64-5.88-4.78-8.34a17.59,17.59,0,0,0-7.13-4.85A20.88,20.88,0,0,0,236,83C230.73,85.9,223.43,98.24,223.77,98.13Z" style="fill:#263238"></path><path d="M224,98.07a8,8,0,0,1,3.71-.14,6.82,6.82,0,0,1,2.93,1.61c1.88,1.7,2.9,4,4,6.25s2.2,4.29,4.3,5.47a5.58,5.58,0,0,0,3,.78,4.32,4.32,0,0,0,2.92-1.53c1.42-1.54,2.72-3.94,5.15-3.83s3.7,2.6,4.7,4.39c2.44,4.39,4.95,10.44,10.63,11.18a18.5,18.5,0,0,0,8.68-1.45c1.93-.73,4.36-1.68,6.32-.56.07.05,0,.15-.08.11-2.09-1.16-4.36.22-6.3,1.05a19.49,19.49,0,0,1-7.28,1.71,9.65,9.65,0,0,1-6.74-2.68,22.28,22.28,0,0,1-4.41-6.24c-.61-1.17-1.2-2.34-1.85-3.49a8,8,0,0,0-2.23-2.78,2.79,2.79,0,0,0-3.32,0,14.8,14.8,0,0,0-2.5,2.68,5.66,5.66,0,0,1-2.62,1.85,5.21,5.21,0,0,1-2.63,0,8.15,8.15,0,0,1-4.71-3.49c-1.59-2.35-2.35-5.16-4-7.49a8.11,8.11,0,0,0-3.24-2.88,8.23,8.23,0,0,0-4.35-.29A.15.15,0,0,1,224,98.07Z" style="fill:#263238"></path><path d="M236.86,80.53c5.28-3,11.93-2.5,17,.56a21.08,21.08,0,0,1,7,7c1.65,2.64,3,5.56,5.17,7.81,2.43,2.48,5.8,3.19,8.94,4.36a18.72,18.72,0,0,1,6.77,4.34,20,20,0,0,1,5.8,14.1c0,.67,0,1.33-.11,2a.07.07,0,0,1-.13,0,19.24,19.24,0,0,0-5-14.4,19,19,0,0,0-6.11-4.58c-2.87-1.33-6.11-1.8-8.81-3.51-2.53-1.62-4.13-4.25-5.58-6.8-1.58-2.79-3.15-5.53-5.6-7.66a17.13,17.13,0,0,0-16.75-3.58c-6.44,2.26-10.33,8.2-13.22,14l-1.14,2.34c0,.09-.19,0-.15-.05C227.65,90.38,230.9,84,236.86,80.53Z" style="fill:#263238"></path><path d="M221.72,95.22a2.92,2.92,0,0,1,2.51-1.43c.66.2,3.74,4.61,3.43,5.91s-2.77,1.09-2.77,1.09Z" style="fill:#49ADCA"></path><path d="M207.62,183.15l1.57,8.29H260.5s-8-42.05-26.81-54.52c-9.4-6.24-18-3.5-22.14,3.49-1.06,1.77-11.8,20.32-11.49,29.22C200.35,177.48,207.62,183.15,207.62,183.15Z" style="fill:#eb9481"></path><path d="M200.05,169.63c.28,7.36,6.71,12.81,7.5,13.46l0,0,0,0,50-3.38c-1.16-4.08-2.67-8.87-4.59-13.81a91.19,91.19,0,0,1-14.88-.68c-2.19-.41-7-7.68-13.27-6.94s-12.43,6.94-12.43,6.94a20.11,20.11,0,0,0-10.16-5.86C200.91,163.22,200,166.89,200.05,169.63Z" style="fill:#263238"></path><path d="M200.05,169.63c.3,7.85,7.58,13.52,7.58,13.52l.49,3.26L260,181.58c-3.78-12.11-12.6-35.58-26.28-44.66a22.48,22.48,0,0,0-5-2.52c-3.08,4.94-13,20.39-17,19.37-3.6-.94-.8-10.39.67-14.68-.31.42-.6.85-.88,1.32C210.49,142.18,199.75,160.73,200.05,169.63Zm31.09-33.32c4.36-.34,14,14,16.2,23.71,1.31,5.7-.23,10.17-3.52,10.61-4,.55-10.07-3.9-12.73-9.65C226.69,151.41,226.12,136.7,231.14,136.31Z" style="fill:#37474f"></path><path d="M224.22,176.18a48.78,48.78,0,0,0-8.26,2.17c-1.33.5-2.64,1.08-3.94,1.69-.65.3-1.3.58-2,.85a7.68,7.68,0,0,1-2.12.62c-.07,0-.06.13,0,.13a13.15,13.15,0,0,0,2.07-.18,12.28,12.28,0,0,0,1.94-.57c1.36-.49,2.7-1.06,4-1.58,2.74-1,5.47-2.06,8.26-2.85C224.4,176.42,224.35,176.16,224.22,176.18Z" style="fill:#263238"></path><path d="M231.34,178.75a51.1,51.1,0,0,0-7,0c-1.16.09-2.31.26-3.47.46-.55.1-1.09.21-1.64.33s-1.19.36-1.79.48c-.07,0-.06.13,0,.12.57-.09,1.16-.07,1.73-.12l1.74-.16c1.16-.11,2.32-.2,3.48-.32,2.32-.24,4.63-.44,7-.59C231.48,179,231.46,178.76,231.34,178.75Z" style="fill:#263238"></path><path d="M224.89,135c-.19,1.14-5.08,8.77-10.23,8.86-1.68,0-2.22-9.12-2.22-9.12l-.2-.67-2.72-9.32,10.66-7.84,1.55-1s.57,2.6,1.25,5.85c0,.15.07.3.1.46a5,5,0,0,1,.12.53c.11.48.22,1,.32,1.47s.15.74.21,1.14.14.78.22,1.18A62.1,62.1,0,0,1,224.89,135Z" style="fill:#eb9481"></path><path d="M223,121.74a19.46,19.46,0,0,1-10.74,12.36l-2.72-9.32,10.66-7.84,1.55-1S222.3,118.49,223,121.74Z" style="fill:#263238"></path><path d="M194.45,109.61c-1.66,17,8.31,19.87,12,20.22,3.32.32,14.67,1,18.07-15.7s-4-22.84-11.51-24S196.11,92.64,194.45,109.61Z" style="fill:#eb9481"></path><path d="M197.42,107.15c.4,0,.77-.1,1.16-.15a2,2,0,0,0,1.17-.38.62.62,0,0,0,.05-.74,1.52,1.52,0,0,0-1.45-.47,2.21,2.21,0,0,0-1.44.67A.65.65,0,0,0,197.42,107.15Z" style="fill:#263238"></path><path d="M208.58,107.92a9.11,9.11,0,0,1-1.14-.3,1.9,1.9,0,0,1-1.1-.53.62.62,0,0,1,0-.74,1.5,1.5,0,0,1,1.5-.27,2.19,2.19,0,0,1,1.34.85A.64.64,0,0,1,208.58,107.92Z" style="fill:#263238"></path><path d="M206,111.29s.09.06.08.11c-.15,1.15-.14,2.5.87,3,0,0,0,.07,0,.06C205.69,114.14,205.69,112.36,206,111.29Z" style="fill:#263238"></path><path d="M207.18,110.19c1.87,0,1.63,3.79-.1,3.74S205.61,110.15,207.18,110.19Z" style="fill:#263238"></path><path d="M207.9,110.44c.31.23.61.62,1,.69s.82-.3,1.14-.66c0,0,.07,0,.07,0,0,.72-.36,1.43-1.14,1.49s-1.17-.61-1.3-1.34C207.65,110.53,207.77,110.34,207.9,110.44Z" style="fill:#263238"></path><path d="M199.69,110.66s-.1,0-.1.09c0,1.17-.26,2.49-1.33,2.82a0,0,0,0,0,0,.06C199.56,113.52,199.84,111.76,199.69,110.66Z" style="fill:#263238"></path><path d="M198.72,109.39c-1.86-.25-2.21,3.48-.49,3.71S200.27,109.6,198.72,109.39Z" style="fill:#263238"></path><path d="M197.92,109.56c-.32.17-.64.5-1,.49s-.67-.44-.89-.86c0,0-.06,0-.07,0-.08.71.08,1.48.75,1.68s1.13-.39,1.37-1.08C198.13,109.7,198,109.49,197.92,109.56Z" style="fill:#263238"></path><path d="M205.86,120.32c-.27.28-.54.66-1,.71a3.18,3.18,0,0,1-1.25-.26s-.08,0-.05.06a1.55,1.55,0,0,0,1.49.59,1.23,1.23,0,0,0,.88-1C206,120.3,205.9,120.28,205.86,120.32Z" style="fill:#263238"></path><path d="M201.14,116s-.29,1.72-.32,2.54c0,.08.2.12.47.15,0,0,0,0,0,0a3.88,3.88,0,0,0,3.81-1.34c.06-.08,0-.16-.12-.11a5.86,5.86,0,0,1-3.57.9c0-.23.6-2.93.47-3a7.49,7.49,0,0,0-1.87.36c.5-3.61,1.58-7.11,2-10.71a.11.11,0,0,0-.21-.06,59.29,59.29,0,0,0-2.68,11.45C199.11,116.67,200.81,116.11,201.14,116Z" style="fill:#263238"></path><path d="M202.14,118.47a3.89,3.89,0,0,0,1.55,1.23,1.69,1.69,0,0,0,1.07.08c.78-.19.81-.9.67-1.51a4.58,4.58,0,0,0-.33-.94A5.09,5.09,0,0,1,202.14,118.47Z" style="fill:#263238"></path><path d="M203.69,119.7a1.69,1.69,0,0,0,1.07.08c.78-.19.81-.9.67-1.51A1.82,1.82,0,0,0,203.69,119.7Z" style="fill:#ff9cbd"></path><path d="M222.38,115.65c-3.16.21-3.53-7-3.53-7s-13.23-3.07-13.72-14a18.42,18.42,0,0,1-9.89,9.52s1.18-11.9,10.78-13.65c0,0,12-3.57,18,6.14S224.5,115.51,222.38,115.65Z" style="fill:#263238"></path><path d="M205.13,93.81a12.1,12.1,0,0,0,.3,5,12.42,12.42,0,0,0,2.26,4.54,9.72,9.72,0,0,0,.85,1l.44.47c.16.14.32.28.49.41.33.27.65.55,1,.8l1.08.67c.18.1.36.22.55.32l.57.26,1.15.52c.79.28,1.6.51,2.4.73-.75-.38-1.52-.68-2.25-1.06l-1.07-.61-.54-.3c-.17-.11-.33-.24-.5-.36-.33-.24-.66-.48-1-.7s-.61-.54-.92-.81l-.45-.4-.41-.45a8.59,8.59,0,0,1-.79-.91,14.12,14.12,0,0,1-2.3-4.25,14.72,14.72,0,0,1-.61-2.37A14.45,14.45,0,0,1,205.13,93.81Z" style="fill:#263238"></path><path d="M221.11,114.93s3.53-5.45,6-4.22,0,9.05-2.84,10.21a2.88,2.88,0,0,1-3.92-1.41Z" style="fill:#eb9481"></path><path d="M226.32,112.93a0,0,0,0,1,0,.08c-2,.88-2.93,2.76-3.6,4.69a1.61,1.61,0,0,1,2.37-.52s0,.12-.05.11a1.79,1.79,0,0,0-1.93.69,8.35,8.35,0,0,0-.87,1.61c-.09.18-.41.1-.35-.11,0,0,0,0,0,0C221.78,116.91,223.61,113.29,226.32,112.93Z" style="fill:#263238"></path><path d="M238.1,136.31c24.68,4.81,46.93,21.59,48.63,28.9,2.43,10.48-14.69,39.26-20.15,50.51-1.7,3.5-24-17.87-22.17-21.6S260,170.58,260,170.07c0-1.08-21.65-18.65-27.18-23C227.86,143.1,224.68,133.69,238.1,136.31Z" style="fill:#eb9481"></path><path d="M218.44,221.77a4.63,4.63,0,0,0,4.59,2.64,6.92,6.92,0,0,0,.9,4.6c1.57,2.36,6,.92,6,.92a8.53,8.53,0,0,0,1.73,4.7c1.73,2.1,6.36,1.29,6.36,1.29a7.48,7.48,0,0,0,4.12,3.17c4.62,1.23,10-3.75,13.37-6.89s10.19-15.23,11.72-17.41l-19.94-22.13s-19.34,9.69-22.84,14C221.46,210.2,217,218.44,218.44,221.77Z" style="fill:#eb9481"></path><path d="M222.86,223.92c2.22-4.57,5.67-8.23,8.9-12.08a.09.09,0,0,1,.14.12c-3.27,3.79-5.73,8.18-8.84,12.09C223,224.16,222.8,224,222.86,223.92Z" style="fill:#263238"></path><path d="M229.7,229.58a13.11,13.11,0,0,1,2.18-2.69c.83-.9,1.68-1.78,2.55-2.65q2.59-2.62,5.32-5.1c.08-.07.21,0,.13.11-1.72,1.74-3.42,3.51-5.06,5.32-.83.91-1.64,1.82-2.45,2.74A16.23,16.23,0,0,1,230,229.8.18.18,0,0,1,229.7,229.58Z" style="fill:#263238"></path><path d="M238.05,235.84a9.17,9.17,0,0,1,2.09-2.31c.81-.78,1.61-1.56,2.4-2.35,1.6-1.57,3.19-3.15,4.72-4.77.08-.08.21,0,.13.11-1.55,1.66-3.08,3.34-4.64,5-.77.81-1.55,1.62-2.33,2.42a8.73,8.73,0,0,1-2.29,2S238,235.89,238.05,235.84Z" style="fill:#263238"></path><path d="M250.25,184.12c.8-1.14,1.61-2.27,2.43-3.4a44,44,0,0,1,2.87-3.37s.09,0,.06,0c-.77,1.17-1.45,2.39-2.28,3.52s-1.66,2.34-2.46,3.54c-1.57,2.34-3.25,4.61-4.81,7-.05.07-.18,0-.14-.08A79.52,79.52,0,0,1,250.25,184.12Z" style="fill:#263238"></path><path d="M239.23,153.11l1.18.61c-1.63-1.37-3.19-2.81-4.71-4.31,0,0,0-.09.06-.06,1.94,1.44,3.85,2.9,5.71,4.44.88.73,1.79,1.44,2.64,2.2s1.88,1.75,2.89,2.55c.12.09,0,.28-.13.19-1-.77-2-1.43-3-2.16s-1.68-1.32-2.51-2c-.3-.13-.6-.25-.89-.41-.47-.25-.94-.5-1.39-.79-.91-.56-1.79-1.16-2.68-1.75,0,0,0,0,0,0C237.35,152.15,238.28,152.64,239.23,153.11Z" style="fill:#263238"></path></g><g id="freepik--character-1--inject-2"><path d="M548.89,143.76c10.15-9.31,27.32-32.08,27.32-39.7,0-6.06-12.91-21.26-21.7-31.71C552.13,69.53,537.29,86,539.9,88.93c5.47,6.18,12.6,15.3,12.94,17.06.7,3.66-9.5,20.51-13,29.16C534.28,148.63,542,150.07,548.89,143.76Z" style="fill:#eb9481"></path><path d="M533.64,82.14c2.08,4.68,8.94,9.72,8.94,9.72l13.92-17.1s-5.43-7.15-6.63-12.26c-.29-1.26-.82-7.55-2.37-13.91C545.74,41.36,543,34,542.23,33.51c-1.43-1-3.69.83-3.65,6s1.83,15.16,1.78,15.79a5.46,5.46,0,0,1-.17.61h0c-.16.23-6.81,3.26-7.46,6.49S533.08,81.39,533.64,82.14Z" style="fill:#eb9481"></path><path d="M544.19,64.52s2.6-12.26,1.58-14.66-4.93-17.74-6.35-18.73-3.69.84-3.66,6,1.84,15.16,1.79,15.79-4.06,10.91-4.14,12S544.19,64.52,544.19,64.52Z" style="fill:#eb9481"></path><path d="M546.63,57.82c0-1.37-.09-2.74-.16-4.11-.05-.69-.1-1.37-.17-2.06,0-.34-.07-.68-.11-1,0-.17-.06-.35-.09-.52a3.71,3.71,0,0,0-.14-.53c-.77-2.61-1.56-5.25-2.37-7.86s-1.62-5.23-2.51-7.85a9,9,0,0,0-1-1.88,3.75,3.75,0,0,0-.73-.81,1.73,1.73,0,0,0-1-.44,1.37,1.37,0,0,0-1,.43,3.08,3.08,0,0,0-.62.87,7.39,7.39,0,0,0-.62,2,9.46,9.46,0,0,1,.79-1.88,3.06,3.06,0,0,1,.63-.75,1.1,1.1,0,0,1,.83-.29,2.19,2.19,0,0,1,1.4,1.15,8.28,8.28,0,0,1,.81,1.82c.76,2.61,1.54,5.25,2.35,7.87s1.63,5.23,2.54,7.83a10,10,0,0,1,.41,2c.1.67.18,1.35.27,2Z" style="fill:#263238"></path><path d="M541.88,66.15s2.79-13.44,1.77-15.84-4.93-17.75-6.34-18.74-3.69.84-3.66,6,1.83,15.16,1.78,15.79-2.89,11-3,12S541.88,66.15,541.88,66.15Z" style="fill:#eb9481"></path><path d="M545.07,59.86c-.1-1.68-.26-3.35-.42-5-.1-.84-.21-1.67-.33-2.51-.06-.42-.12-.84-.2-1.25a9.52,9.52,0,0,0-.33-1.25c-1-3.21-2-6.43-3-9.63l-1.56-4.8-.41-1.19a9.44,9.44,0,0,0-.47-1.21,4.81,4.81,0,0,0-.72-1.13,2.26,2.26,0,0,0-1.18-.79,1.3,1.3,0,0,0-.78.06,1.73,1.73,0,0,0-.59.43,3.62,3.62,0,0,0-.71,1.14,10.93,10.93,0,0,0-.68,2.47,14.82,14.82,0,0,0,0,5.06,15.74,15.74,0,0,1,.3-5,11.53,11.53,0,0,1,.76-2.35,3.39,3.39,0,0,1,.64-1,.93.93,0,0,1,.9-.3,1.79,1.79,0,0,1,.84.63,5.2,5.2,0,0,1,.61,1c.31.72.53,1.55.79,2.35l1.53,4.8c1,3.2,2.06,6.4,3.16,9.59a7.27,7.27,0,0,1,.36,1.18c.09.4.18.81.26,1.22.15.82.29,1.65.42,2.48Z" style="fill:#263238"></path><path d="M542.32,66.14S542,53.9,541.06,51.66s-3-12.87-4.28-13.79-3.43.78-3.4,5.56.08,10.47,0,11.06-.87,9.88-.95,10.87S542.32,66.14,542.32,66.14Z" style="fill:#eb9481"></path><path d="M543.25,62.85c-.19-2.16-.42-4.31-.64-6.47-.11-1.07-.22-2.15-.35-3.23l-.1-.81a5.66,5.66,0,0,0-.16-.82c-.12-.53-.27-1.05-.42-1.58-.61-2.08-1.27-4.15-2-6.19-.36-1-.74-2-1.13-3.06-.2-.51-.41-1-.63-1.51a8.9,8.9,0,0,0-.76-1.51,1.25,1.25,0,0,0-1.88-.33A4,4,0,0,0,534,38.68a7.08,7.08,0,0,0-.92,3.26c-.05,2.18-.05,4.34-.05,6.51s0,4.36,0,6.48c0,1.07-.11,2.16-.18,3.24s-.1,2.16-.12,3.25c.38-2.14.67-4.28.91-6.45l0-6.51c0-2.17,0-4.34.1-6.49a6.48,6.48,0,0,1,.81-2.94,3.44,3.44,0,0,1,.93-1.12.59.59,0,0,1,.94.15,9.49,9.49,0,0,1,.7,1.39c.22.48.43,1,.63,1.48.4,1,.78,2,1.15,3,.73,2,1.47,4.07,2.12,6.13.16.51.32,1,.46,1.54a15.28,15.28,0,0,1,.28,1.58l.46,3.21Z" style="fill:#263238"></path><path d="M548.89,143.76a122.83,122.83,0,0,0,12-13.23l-8.46-21.83c-2,6.17-9.64,19.2-12.61,26.45C534.28,148.63,542,150.07,548.89,143.76Z" style="opacity:0.1"></path><path d="M467.73,456.91c2.52.79,64.55,1.07,67.23-.73,1-.67,1.4-11.12,1.48-23.77V432c0-2.61.23-45.38.23-45.38l-45.28-.08-1.2,46,0,.78s-17.5,11-20.24,13.26S465.21,456.14,467.73,456.91Z" style="fill:#eb9481"></path><path d="M467.73,456.92c2.53.78,64.55,1.06,67.24-.74,1-.66,1.4-11.12,1.47-23.78V432c0-.52,0-2.63,0-5.67H490.34l-.16,6.23,0,.79s-17.49,11-20.24,13.26S465.2,456.14,467.73,456.92Z" style="fill:#ebebeb"></path><path d="M467.73,456.92c2.53.78,64.55,1.06,67.24-.74,1-.65,1.39-10.93,1.47-23.43H490.19l0,.6s-17.49,11-20.24,13.26S465.2,456.14,467.73,456.92Z" style="fill:#49ADCA"></path><path d="M470.31,455c10.34-.49,52.13-1.41,62.4-1,.08,0,.08.06,0,.07-10.25.74-52,1.28-62.4,1.15C470.09,455.14,470.09,455,470.31,455Z" style="fill:#263238"></path><path d="M473.13,444.13a12.72,12.72,0,0,1,9.25,1.72c2.1,1.45,4,3.64,4.38,6.32,0,.08-.16.11-.18,0-1.65-4.89-7.57-8.46-13.42-7.91A.08.08,0,1,1,473.13,444.13Z" style="fill:#263238"></path><path d="M492.49,434.6c4.53-.68,10,.2,13.35,3.53.13.13-.06.31-.2.26a63.32,63.32,0,0,0-13.15-3.22A.29.29,0,0,1,492.49,434.6Z" style="fill:#263238"></path><path d="M489.17,436.45c4.53-.68,10,.2,13.35,3.53.13.12-.06.31-.2.25A63.77,63.77,0,0,0,489.17,437,.29.29,0,0,1,489.17,436.45Z" style="fill:#263238"></path><path d="M485.85,438.3c4.53-.69,10,.2,13.35,3.52.13.13-.05.31-.2.26a63.62,63.62,0,0,0-13.15-3.21A.29.29,0,0,1,485.85,438.3Z" style="fill:#263238"></path><path d="M482.53,440.15c4.54-.69,10,.19,13.35,3.52.13.13-.05.31-.2.26a63,63,0,0,0-13.15-3.21A.29.29,0,0,1,482.53,440.15Z" style="fill:#263238"></path><path d="M527.17,443c5.15-.09,5.29,7.9.14,8S522,443.07,527.17,443Z" style="fill:#263238"></path><path d="M487.19,429.76a24.81,24.81,0,0,0,6.9,4.4c.18.08.35.17.53.24,1,.49,2,1,3,1.46a.46.46,0,0,0,.36,0,.58.58,0,0,0,.4-.5.12.12,0,0,0,.13-.14c0-.15-.07-.3-.1-.47l0-.15s0,0,0,0c-.05-.18-.11-.38-.15-.57-.11-.43-.25-.88-.41-1.32a24.47,24.47,0,0,0-5-8.54c-1.69-1.77-4.84-3.25-6.89-1S485.51,428.11,487.19,429.76Zm-.72-3.72c-.23-5,4.75-1.82,5.95-.47a27.48,27.48,0,0,1,2.07,2.84,42.63,42.63,0,0,1,2.48,4.42c.28.57.57,1.11.86,1.68l0,0,.12.26-.26-.15-.29-.17c-.7-.38-1.39-.76-2.11-1.13s-1.67-.86-2.5-1.31C490.77,431,486.6,428.79,486.47,426Z" style="fill:#263238"></path><path d="M498,435.88h0c1.62,0,3.29.14,4.95.19a23.05,23.05,0,0,0,7.09-.69c2.17-.65,4.73-2.36,4.27-4.94a2,2,0,0,0-.06-.32c-.76-2.91-4.23-3.09-6.55-2.3a24.1,24.1,0,0,0-7.79,4.61,18,18,0,0,0-1.66,1.61,2.71,2.71,0,0,0-.41.47s0,0,0,0a.2.2,0,0,0-.09.12,1.55,1.55,0,0,0-.25.26.14.14,0,0,0,0,.2A.55.55,0,0,0,498,435.88Zm1.13-1.13-.67,0a1.22,1.22,0,0,0-.27,0c.07-.06.16-.1.23-.16h0c1.2-.82,2.35-1.67,3.56-2.46.74-.5,1.48-1,2.26-1.39a25.59,25.59,0,0,1,3.17-1.52c1.41-.54,5.71-1,5.66,1.38a3.64,3.64,0,0,1-.61,1.79c-1.41,2.38-6.11,2.34-8.44,2.35C502.35,434.77,500.73,434.72,499.09,434.75Z" style="fill:#263238"></path><path d="M555.26,194.85s-6.6,40.24-7,41.54c0,0-2.45,1.16-6.88,3.21l-4.51,181.49-47.22-.22s-2.9-145.61,4.3-201.78c.79-6.14,5-24.24,5-24.24Z" style="fill:#37474f"></path><path d="M523.42,421h-.69a50.08,50.08,0,0,0,.59-5.08c.1-2.56-.4-5.61-3-6.75a7,7,0,0,0-6.48.9c-3.52,2.37-4.5,6.82-5.53,10.87h-.69c.88-3.42,1.67-6.91,3.94-9.7s6.45-4.31,9.66-2.4C525.27,411.28,524,417.11,523.42,421Zm7.73-15c-2.21,4.56.31,9.56,2,13.84.15.4.3.81.44,1.22h.72c-.11-.34-.22-.67-.34-1-1.71-4.6-5-10.76-1.2-15.24a7.5,7.5,0,0,1,4.56-2.45l0-.67A8,8,0,0,0,531.15,406Zm-29.76-8c-4.13-.5-8,1.91-12.1,1.89,0,.21,0,.43,0,.64a13.76,13.76,0,0,0,3-.28c3.66-.74,10.83-3.86,12.78,1.24.87,2.28-.46,4.81-2,6.46-1.72,1.86-4.05,2.78-6.36,3.68-2.64,1-5.27,2.13-7.19,4,0,.32,0,.63,0,.92a15.06,15.06,0,0,1,6.08-3.76c4-1.58,8.24-3.09,9.95-7.43C506.86,402.08,505.07,398.49,501.39,398Zm23-2.55c-10.45-1.91-16.31-12.35-25.37-17a17.6,17.6,0,0,0-10-2.06c0,.21,0,.42,0,.63,8.49-1.33,16.64,7.09,22.62,12.2,3.55,3,7.52,5.86,12.17,6.8a19.87,19.87,0,0,0,12.62-1.7c.34-.17.67-.34,1-.53l0-.82A19.19,19.19,0,0,1,524.42,395.49Zm-10.88-33a11.91,11.91,0,0,0-5.48,8.9,7.23,7.23,0,0,0,5.47,7.82c4.27,1,8.77-1.16,12.3-3.35s8-5.08,12.23-4.55v-.65l-.49-.05c-5.2-.34-9.53,3.3-13.82,5.65-3.92,2.15-10.08,4.23-13.54.14-2.86-3.39-1.14-8.59,1.56-11.5,3.58-3.86,9.43-4.36,14.38-4.62,4.09-.22,8.26-.26,12.21-1.46l0-.77a41,41,0,0,1-10.53,1.39C523,359.63,517.79,359.85,513.54,362.47Zm-.65-30.85c1.88-3.19,2.12-7.32-.56-10.16-2.48-2.62-6.46-3-9.83-2.39-4.51.75-8.16,3.37-12,5.65-.43.26-.88.51-1.33.76,0,.28,0,.57,0,.85.84-.45,1.65-.93,2.45-1.41,4-2.38,7.77-5,12.51-5.31,4.32-.32,9.22,1.61,9.52,6.56.3,5.15-4.12,9.09-8.58,10.64-5,1.74-10.37,1.56-15.47,2.81l-.52.14v.76c4.12-1.13,8.45-1.24,12.63-2.07C506.15,337.57,510.48,335.69,512.89,331.62Zm8.32,6.7c-8.12,6.27-12.43,16.46-21.24,21.95A18.07,18.07,0,0,1,489,363.1v.66a20.31,20.31,0,0,0,12.38-3.58c8.53-5.94,12.79-16.19,21.34-22.1a18.33,18.33,0,0,1,14.7-3.12,14.51,14.51,0,0,1,1.5.46l0-.75a16.61,16.61,0,0,0-4.74-.87A20.16,20.16,0,0,0,521.21,338.32ZM533,296.69c-2.48,3.88-.23,8.38,1.58,12,1.22,2.43,2.45,4.91,2.51,7.68a6.56,6.56,0,0,1-3.28,6.21c-3.82,1.89-8.84-.53-10.92-3.92-2.91-4.73-2.19-10.73-1.77-16,.37-4.74.56-9.93-1.86-14.22a10.17,10.17,0,0,0-8.57-5.13,6.61,6.61,0,0,0-7,5.79c-.55,4.33,2,8.38,1.7,12.7a7.56,7.56,0,0,1-9.81,6.36c-2.32-.82-3.87-2.95-5.93-4.2l-.21-.12c0,.31,0,.61,0,.91,1.55,1,2.85,2.4,4.44,3.4a8.28,8.28,0,0,0,9.86-1.21c3.1-2.87,2.59-7,1.69-10.73-.95-4-2.43-10,2.74-11.77,4-1.37,8.51.89,10.49,4.4,2.57,4.55,2.05,10.12,1.65,15.12s-.71,10.29,1.81,14.75a10.58,10.58,0,0,0,8.82,5.23,6.81,6.81,0,0,0,6.9-6.42c.5-5-2.92-9-4.48-13.48-.82-2.36-1-5,.49-7.18a7.65,7.65,0,0,1,4.81-2.9,10.34,10.34,0,0,1,1.33-.18l0-.78A8.75,8.75,0,0,0,533,296.69Zm-15.48-53.38a18.28,18.28,0,0,0,4.75-12.75c-.41-6.76-6.54-14.92-14-11.58-5.58,2.48-7.29,9.69-9.52,14.77-1.22,2.76-2.67,5.71-5.17,7.54a7.83,7.83,0,0,1-1.83,1l-.06,1a11.23,11.23,0,0,0,5.15-4.23c3.66-5.21,4.38-12.16,8.63-17a8.07,8.07,0,0,1,9.43-2.37c4,1.81,6.31,6.41,6.65,10.58.43,5.18-2.16,10.47-5.91,13.93s-8.38,5.22-13,6.83A94.09,94.09,0,0,0,491,255.54c0,.3,0,.61-.05.91,4.87-2.52,10.46-4,15.48-6C510.54,248.82,514.58,246.68,517.56,243.31Zm-14-45.3c.61-1,1.27-2.1,2-3.16h-.93c-1.58,2.36-2.92,4.87-4.63,7.16a22.88,22.88,0,0,1-3.54,3.87h0c-.08.38-.16.76-.25,1.14C499.36,204.78,501.6,201.29,503.54,198Zm19.79-2.66a4.33,4.33,0,0,0-.08-.5h-.86a11.55,11.55,0,0,1-3.73,10.55c-3.61,3.38-8.54,5-13.22,6.23-3.61,1-7.28,1.83-10.81,3.08-.06.34-.12.68-.18,1,4.52-1.64,9.25-2.57,13.85-4,4.29-1.32,8.68-3.16,11.79-6.52A12.16,12.16,0,0,0,523.33,195.35Zm.2,82.07c-1.77-5.14,1.55-10.25.8-15.46-.55-3.78-3.33-6.91-7.41-6.16s-7,4.44-9,7.86c-3.77,6.37-6.47,16.46-14.78,18.23a9.9,9.9,0,0,1-3.21.15c0,.26,0,.53,0,.8,8,.85,12.48-6.7,15.62-12.93,1.86-3.69,3.66-7.81,6.71-10.68,1.81-1.69,4.41-3.19,7-2.65s3.95,3,4.31,5.46c.76,5.15-2.45,10.13-.87,15.27a12.51,12.51,0,0,0,8.58,8.12,14.37,14.37,0,0,0,9-.46l0-.86a14.91,14.91,0,0,1-4.85,1C530.3,285.29,525.23,282.35,523.53,277.42Zm6.85-40.12c-2.38,3-2.42,7.13.44,9.83s6.81,3.49,10.2,5.09l0-.8c-.44-.22-.89-.42-1.35-.61-3.45-1.42-8.37-2.66-9.93-6.49a6.79,6.79,0,0,1,1.81-7.2c2-2.1,5-2.92,7.86-3.16,3.08-.26,6.32.12,9.36-.53.05-.26.09-.52.14-.81a27.26,27.26,0,0,1-5.81.47C538.56,233.11,533.44,233.43,530.38,237.3ZM541,219.06a13.45,13.45,0,0,1-6.79-2.88,12.64,12.64,0,0,1-3.39-5.09,15.8,15.8,0,0,1,.44-11.93,17.81,17.81,0,0,1,2.9-4.31h-1.08a16.43,16.43,0,0,0-4,9.4,15.85,15.85,0,0,0,2.84,10.62c2.73,3.67,6.74,4.68,11.08,5.29,2.58.36,5.23.7,7.46,2.15l.24.17c.05-.28.1-.56.14-.85C548,219.87,544.33,219.64,541,219.06Z" style="fill:#263238"></path><path d="M525.53,310.2c-.74-2.35.74-71,2.42-73.46.3-.47,14.66,2.28,30.54,2,3.22-.07,35.06-1.93,35.06-1.93l-.83,42.43-43.47,1s-12,25.32-14.12,27.88S526.25,312.55,525.53,310.2Z" style="fill:#eb9481"></path><path d="M525.52,310.2c-.72-2.36.75-70.95,2.42-73.46.29-.45,14.65.59,29.85,1.83v42.62l-8.54-1s-12,25.31-14.12,27.88S526.25,312.55,525.52,310.2Z" style="fill:#ebebeb"></path><path d="M525.33,310.65c-.75-2.41.16-71.56,1.86-74.14.64-1,11.67.27,23.3,1.44l-1,42.84s-12.22,25.06-14.39,27.68S526.08,313.05,525.33,310.65Z" style="fill:#49ADCA"></path><path d="M528.08,309.72c.51-11.44,1.51-57.65,1.15-69,0-.09-.06-.09-.07,0-.76,11.34-1.38,57.55-1.27,69C527.89,310,528.07,310,528.08,309.72Z" style="fill:#263238"></path><path d="M537.7,304.13a9.2,9.2,0,0,0-2.66-6.91,8.89,8.89,0,0,0-6.06-2.68c-.07,0-.07.12,0,.13a10.64,10.64,0,0,1,8.57,9.46A.08.08,0,0,0,537.7,304.13Z" style="fill:#263238"></path><path d="M548.32,284.35c.16-4.58-1.35-9.92-5-12.85-.15-.11-.3.09-.24.23a63.66,63.66,0,0,1,4.71,12.69A.29.29,0,0,0,548.32,284.35Z" style="fill:#263238"></path><path d="M546.87,287.86c.15-4.58-1.35-9.92-5-12.85-.15-.11-.31.09-.24.23a63.66,63.66,0,0,1,4.71,12.69A.29.29,0,0,0,546.87,287.86Z" style="fill:#263238"></path><path d="M545.42,291.37c.15-4.58-1.36-9.92-5-12.85-.14-.11-.3.09-.23.23a63.66,63.66,0,0,1,4.71,12.69A.29.29,0,0,0,545.42,291.37Z" style="fill:#263238"></path><path d="M544,294.88c.16-4.58-1.35-9.92-5-12.85-.14-.11-.3.09-.23.23A63.66,63.66,0,0,1,543.4,295,.28.28,0,0,0,544,294.88Z" style="fill:#263238"></path><path d="M540.05,243.85c.09-5.14-7.9-5.29-8-.14S540,249,540.05,243.85Z" style="fill:#263238"></path><path d="M560.45,289.57c2-2.29.14-5.26-1.81-6.72a24.11,24.11,0,0,0-9.06-4c-.46-.12-.92-.2-1.36-.27a5.07,5.07,0,0,1-.58-.08h-.17l-.48-.05a.11.11,0,0,0-.12.15.55.55,0,0,0-.45.45.41.41,0,0,0,.06.35c.6.91,1.2,1.87,1.8,2.83a4.3,4.3,0,0,0,.3.49,24.5,24.5,0,0,0,5.16,6.35C555.58,290.54,558.58,291.72,560.45,289.57Zm-9.62-5.83c-.54-.77-1.07-1.56-1.59-2.33s-.91-1.32-1.37-2c-.06-.09-.14-.18-.2-.26l-.18-.25.28.1h0c.59.23,1.17.45,1.77.65a45.3,45.3,0,0,1,4.67,2,27,27,0,0,1,3.06,1.72c1.48,1,5.22,5.62.22,6C554.78,289.54,552.15,285.64,550.83,283.74Z" style="fill:#263238"></path><path d="M547.24,279.43a.13.13,0,0,0,.2,0,1.84,1.84,0,0,0,.23-.27.23.23,0,0,0,.11-.11s0,0,0,0a3.08,3.08,0,0,0,.42-.47,15.54,15.54,0,0,0,1.4-1.83,24.06,24.06,0,0,0,3.68-8.27c.52-2.4-.06-5.82-3-6.24a1.77,1.77,0,0,0-.32,0c-2.62-.16-4,2.58-4.42,4.81a23,23,0,0,0,.14,7.12c.24,1.65.53,3.29.76,4.9v0A.54.54,0,0,0,547.24,279.43Zm-.4-6.48c-.26-2.32-.84-7,1.35-8.65a3.68,3.68,0,0,1,1.71-.82c2.34-.32,2.4,4,2,5.46a26.2,26.2,0,0,1-1.15,3.33c-.33.82-.71,1.61-1.12,2.4-.64,1.3-1.35,2.54-2,3.82h0c0,.08-.08.17-.13.25a1.14,1.14,0,0,0,0-.26c0-.23,0-.45-.05-.68C547.25,276.19,547,274.58,546.84,273Z" style="fill:#263238"></path><path d="M526.14,194.85h31.37s2.29,8.09,4,8.75c9.06,3.56,47.5,13.94,69.76,25.72,19.16,10.14,21.91,37.8-4.93,45.31-35.26,9.86-73,9.75-73,9.75l-.47-47.47s28-3.83,54.7-3.16c0,0-28.24,8.49-58.38,3.31-2.95-.51-6.91-1.45-10.48-2.37-4.79-1.22-8.88-2.4-8.88-2.4Z" style="fill:#37474f"></path><path d="M587.59,268.28a21.43,21.43,0,0,1-1.2,6.33c-.71,2.44-1.49,4.85-2,7.33,0,.17-.07.34-.11.51l-.81.08c.7-3.66,2-7.2,2.94-10.81.54-2.19,1-5.19-.79-7-2.09-2.13-5.65-.87-7.57.84-5.1,4.54-4.33,11.72-5.58,18l-.79,0c.78-3.57.72-7.42,1.58-10.91.91-3.67,3-7.62,6.62-9.18a5.94,5.94,0,0,1,5.83.3A5.63,5.63,0,0,1,587.59,268.28Zm-34.15-44.23c-3-4.06-8-4.21-12.47-5a13.45,13.45,0,0,1-6.79-2.88,12.64,12.64,0,0,1-3.39-5.09,15.8,15.8,0,0,1,.44-11.93,17.81,17.81,0,0,1,2.9-4.31h-1.08a16.43,16.43,0,0,0-4,9.4,15.85,15.85,0,0,0,2.84,10.62c2.73,3.67,6.74,4.68,11.08,5.29,2.58.36,5.23.7,7.46,2.15s4.08,3.84,3.3,6.51c-1.24,4.24-7.06,4.25-10.61,4.27a27.22,27.22,0,0,0-7.47.81l1.49.39a18,18,0,0,1,2.29-.33c3.88-.33,8,.37,11.69-1.28A5.59,5.59,0,0,0,553.44,224.05Zm2.86-5.57c3.28,2.78,7.56.15,10.06-2.4s4.32-5.74,6.25-8.76l-.84-.26c-1,1.61-2,3.26-3.13,4.83-2.17,3.11-6.74,8.87-11.12,6.41-1.88-1.06-2.67-3.37-2.68-5.43,0-2.62,1.41-5,2.95-7,.83-1.09,1.78-2.2,2.69-3.34h0c-.14-.23-.28-.49-.42-.76-1.67,2.13-3.59,4.14-4.83,6.52C553.59,211.45,553.34,216,556.3,218.48ZM555.61,238a12.94,12.94,0,0,1,2.13-1.49l.38-.2c4.44-2.34,9.66-2.85,14.47-4,5-1.22,10.09-2.91,14.36-5.93a21.87,21.87,0,0,0,8.43-11.59l-.76-.26a16.57,16.57,0,0,1-1.57,3.92,24.21,24.21,0,0,1-11.84,10.16c-4.91,2.16-10.17,3.15-15.38,4.29-3.34.72-7,1.68-9.88,3.68a11,11,0,0,0-1.6,1.3,11.73,11.73,0,0,0-.84.88,8.53,8.53,0,0,0-.62.83v1.72A11.89,11.89,0,0,1,555.61,238Zm51-17.17c-4.15-1.36-9.17,1.3-12.62,3.44a53.62,53.62,0,0,0-9.79,8.18c-.59.6-1.17,1.2-1.74,1.81-1.34,1.4-2.65,2.82-4,4.23s-2.41,2.56-3.65,3.81c-3.2,3.23-6.7,6.58-10.83,8.58-3.48,1.7-8.64,2.29-11-.93v1.25c2,2,5.23,2.36,8.08,1.66,4.3-1.06,7.93-4,11.15-6.9,2.62-2.37,5-5,7.46-7.55.68-.73,1.35-1.46,2-2.18s1.27-1.36,1.92-2a67.35,67.35,0,0,1,8-7.32,34.87,34.87,0,0,1,5.62-3.48c2.25-1.1,4.85-2.18,7.4-2.1a6,6,0,0,1,5.51,4.39,9,9,0,0,1-.84,7.12c-2.46,4.54-7.33,7.7-11.67,10.25-9,5.28-19.1,8.39-27.72,14.26-7.47,5.08-14.39,13-15.43,22.3a20.22,20.22,0,0,0,0,4.79h.83a20.52,20.52,0,0,1,.66-8.07c2.76-9.78,11.12-16.87,19.74-21.51,9.18-4.94,19.29-8.26,27.66-14.6,3.45-2.61,7.17-6,7.86-10.52C611.8,226.14,610.21,222,606.61,220.79ZM617,258.37a10.31,10.31,0,0,0-8.46-6.55,9.66,9.66,0,0,0-9.53,4.77c-2.23,3.77-1.7,7.83.5,11.45a44.6,44.6,0,0,1,3.92,7.18,23.67,23.67,0,0,1,1.21,4.3l.75-.13a22.81,22.81,0,0,0-1.41-5,46.13,46.13,0,0,0-3.67-6.59c-1.42-2.3-2.34-4.71-1.86-7.44a9.2,9.2,0,0,1,9.38-7.82c5,.28,8.39,4,9.12,8.8.6,3.93,0,7.94.64,11.86a10.67,10.67,0,0,0,1.16,3.38l.82-.2a14.43,14.43,0,0,1-1.48-6.21C617.89,266.27,618.37,262.12,617,258.37ZM634.66,264c-1.59-4.95-4.88-8.94-7.92-13.06s-6-9-5.21-14.34a15.72,15.72,0,0,1,5.5-9.35l-.77-.37a17.41,17.41,0,0,0-4.41,5.94,14.7,14.7,0,0,0,.4,12.43c2.19,4.64,5.83,8.35,8.57,12.65,2.39,3.76,4.58,8.7,3.83,13.29.27-.16.54-.32.8-.49A16.31,16.31,0,0,0,634.66,264Zm5.65-6.45c-2.6-4.59,1.21-9.41,4.4-12.79-.09-.27-.19-.55-.3-.82a25.87,25.87,0,0,0-3.78,4.58c-2.17,3.53-3,8.23.46,11.27a10.68,10.68,0,0,0,2.8,1.77c.12-.24.23-.47.33-.71A8.09,8.09,0,0,1,640.31,257.51Z" style="fill:#263238"></path><path d="M620.46,233.36a149.19,149.19,0,0,0-16.9-1c2.16-.47,4.36-.86,6.53-1.2.12,0,.12-.21,0-.2a41.65,41.65,0,0,0-7.56,1.4c-3.74,0-7.47.13-11.2.32-9.76.5-11.88.71-21.61,1.66-5.52.55-11.15,1.84-16.67,2.41a.48.48,0,0,0-.46.48c0,1.44.11,2.89.16,4.33a.29.29,0,0,0,.57,0c.06-1.3.15-2.6.19-3.9,9.6-.8,11.71-1.63,21.32-2.46s19.46-1.45,29.23-1.68c5.47-.13,10.92-.14,16.39,0C620.55,233.56,620.58,233.38,620.46,233.36Z" style="fill:#263238"></path><path d="M548.86,225.52A150.73,150.73,0,0,0,524.29,236c-.31.16-.14.66.19.53,8.26-3.23,16.6-6.77,24.68-10.46C549.79,225.78,549.51,225.32,548.86,225.52Z" style="fill:#263238"></path><path d="M541,229.82c0,.74-.32,5.48-.26,6.86a.28.28,0,0,0,.56,0c.26-2,.35-6.5.32-6.95C541.58,229.08,541,229.15,541,229.82Z" style="fill:#263238"></path><path d="M519.86,100.48a4.66,4.66,0,0,0-1.7.8c-2.31,1.73-2.94,4.74-3,7.45,0,2.9.6,6-.4,8.8a4.85,4.85,0,0,1-2.09,2.69,4.5,4.5,0,0,1-3.68,0c-1.25-.45-2.65-1.26-4-.83a3.74,3.74,0,0,0-2.25,2.53c-.93,2.82.7,5.8.93,8.62a15.05,15.05,0,0,1-1.93,8.68,14.68,14.68,0,0,1-6.07,5.72,14.53,14.53,0,0,1-3.9,1.34c-1.51.27-3.06.22-4.59.42a5.32,5.32,0,0,0-3.8,1.94c-.65,1-.83,5.22,2.16,9.51.21.3-.36.67-.68.44a18,18,0,0,1-1.83-1.43,20.11,20.11,0,0,1-6.72-17,20.86,20.86,0,0,1,3.49-9.52,34.05,34.05,0,0,0,3-4.82,10.41,10.41,0,0,0,.82-4.9c-.16-3.22-1.1-6.35-.7-9.59a17.58,17.58,0,0,1,3.19-8,20.89,20.89,0,0,1,15.15-8.51C507.24,94.24,520.19,100.38,519.86,100.48Z" style="fill:#263238"></path><path d="M519.66,100.53a8.27,8.27,0,0,0-3.14,2,6.78,6.78,0,0,0-1.53,3c-.61,2.46-.16,4.94.2,7.4s.58,4.78-.51,6.94a5.45,5.45,0,0,1-2,2.31,4.33,4.33,0,0,1-3.27.37c-2-.49-4.46-1.75-6.41-.3s-1.62,4.23-1.44,6.28c.43,5,1.73,11.41-2.56,15.21a18.56,18.56,0,0,1-8,3.65c-2,.47-4.55,1-5.55,3.08,0,.07.09.11.12,0,1.09-2.13,3.74-2.26,5.81-2.66a19.66,19.66,0,0,0,7-2.65,9.6,9.6,0,0,0,4.09-6,22.58,22.58,0,0,0,.16-7.65c-.14-1.3-.32-2.61-.42-3.92a8,8,0,0,1,.29-3.55,2.8,2.8,0,0,1,2.77-1.83,15,15,0,0,1,3.57.82,5.61,5.61,0,0,0,3.22.07,5.11,5.11,0,0,0,2.19-1.45,8.11,8.11,0,0,0,1.95-5.52c0-2.84-.94-5.6-.89-8.44a6.68,6.68,0,0,1,4.52-6.87A.16.16,0,0,0,519.66,100.53Z" style="fill:#263238"></path><path d="M499.15,93.22c-6.07.44-11.28,4.6-13.81,10a21,21,0,0,0-1.86,9.69c.11,3.11.64,6.27.08,9.36-.63,3.42-3,5.89-5,8.62a18.85,18.85,0,0,0-3.18,7.38,20,20,0,0,0,3.09,14.94,16.83,16.83,0,0,0,1.2,1.58c.06.07.16,0,.1-.08a19.56,19.56,0,0,1-1.45-21.92c1.64-2.71,4.06-4.91,5.34-7.84,1.19-2.76,1.05-5.83.82-8.76-.25-3.19-.48-6.34.35-9.48a17.14,17.14,0,0,1,11.88-12.34c6.6-1.73,13.15,1,18.8,4.23l2.26,1.3c.09,0,.18-.07.09-.13C512.3,96.23,506,92.72,499.15,93.22Z" style="fill:#263238"></path><path d="M522,97.64a2.9,2.9,0,0,0-2.79-.72c-.59.36-2.41,5.41-1.77,6.59s2.95.33,2.95.33Z" style="fill:#49ADCA"></path><path d="M553.37,174.61l4.14,20.24-58.69.51s8-44,18.21-56.43c6.88-8.41,15.55-8.32,21.38-3.06,1.47,1.33,15.13,18.87,17.38,27.15C557.74,170.34,553.37,174.61,553.37,174.61Z" style="fill:#263238"></path><path d="M532.14,171.22a53.35,53.35,0,0,1,8.61,1.34c1.41.36,2.79.79,4.18,1.25.69.24,1.38.44,2.07.64a8.52,8.52,0,0,0,2.22.41.06.06,0,0,1,0,.11,13.63,13.63,0,0,1-2.12,0,14.07,14.07,0,0,1-2-.37c-1.43-.35-2.85-.77-4.27-1.14-2.88-.74-5.76-1.48-8.68-2C532,171.46,532,171.21,532.14,171.22Z" style="fill:#37474f"></path><path d="M525.08,174.23a57.1,57.1,0,0,1,7.15-.57c1.2,0,2.39.05,3.58.15.57.05,1.14.1,1.71.17s1.25.24,1.87.3c.07,0,.07.12,0,.11-.59,0-1.19,0-1.78,0h-1.79c-1.19,0-2.39,0-3.58,0-2.39,0-4.77,0-7.16,0C525,174.45,525,174.24,525.08,174.23Z" style="fill:#37474f"></path><path d="M526.32,134.17c.42,1.6,4.82,8.67,9.75,8.12,2.53-.28,1.9-9.19,1.9-9.19l.08-.66,1.05-9.3-13-6.43S526.2,133.72,526.32,134.17Z" style="fill:#eb9481"></path><path d="M526.12,123.05a18.8,18.8,0,0,0,11.93,9.39l1.06-9.3-13.06-6.44S526.08,119.61,526.12,123.05Z" style="fill:#263238"></path><path d="M550.89,108.1c2.68,16.2-6.73,19.64-10.22,20.21-3.17.52-14,1.89-18.38-14s2.35-22.21,9.54-23.78S548.21,91.89,550.89,108.1Z" style="fill:#eb9481"></path><path d="M546.23,104.77a10.54,10.54,0,0,1-1.13-.11,1.88,1.88,0,0,1-1.13-.34.59.59,0,0,1-.07-.71,1.47,1.47,0,0,1,1.38-.49,2.17,2.17,0,0,1,1.41.61A.62.62,0,0,1,546.23,104.77Z" style="fill:#263238"></path><path d="M535.06,106c.38-.09.71-.23,1.08-.35a1.86,1.86,0,0,0,1-.57.58.58,0,0,0-.08-.71,1.45,1.45,0,0,0-1.45-.18,2.11,2.11,0,0,0-1.25.89A.62.62,0,0,0,535.06,106Z" style="fill:#263238"></path><path d="M537.67,109.87s-.08.06-.07.11c.18,1.1.19,2.4-.76,2.9,0,0,0,.07,0,.06C538.06,112.61,538,110.89,537.67,109.87Z" style="fill:#263238"></path><path d="M536.53,108.84c-1.8.09-1.48,3.69.19,3.6S538,108.76,536.53,108.84Z" style="fill:#263238"></path><path d="M535.84,109.09c-.29.23-.57.62-1,.69s-.79-.26-1.11-.6c0,0-.06,0-.06,0,0,.69.38,1.37,1.13,1.41s1.11-.62,1.22-1.33C536.09,109.18,536,109,535.84,109.09Z" style="fill:#263238"></path><path d="M544.51,109.07s.09.05.09.1c.06,1.11.31,2.38,1.35,2.67,0,0,0,.07,0,.06C544.7,111.83,544.38,110.14,544.51,109.07Z" style="fill:#263238"></path><path d="M545.41,107.83c1.78-.28,2.21,3.3.56,3.56S543.91,108.07,545.41,107.83Z" style="fill:#263238"></path><path d="M546.18,108c.31.16.63.47,1,.45s.64-.44.84-.85c0,0,.06,0,.06,0,.11.68,0,1.42-.68,1.63s-1.09-.34-1.34-1C546,108.11,546.06,107.91,546.18,108Z" style="fill:#263238"></path><path d="M539,118.61c.22.29.44.68.84.77a2.86,2.86,0,0,0,1.23-.11,0,0,0,0,1,0,.06,1.5,1.5,0,0,1-1.49.41,1.19,1.19,0,0,1-.74-1.1C538.87,118.57,539,118.56,539,118.61Z" style="fill:#263238"></path><path d="M543.66,114.17s.4,1.63.48,2.42a4.25,4.25,0,0,1-4.23-.85c-.07-.07,0-.16.1-.12a5.69,5.69,0,0,0,3.5.63c0-.23-.77-2.79-.65-2.81a7.11,7.11,0,0,1,1.82.22c-.73-3.43-2-6.72-2.68-10.16a.11.11,0,0,1,.2-.07,56.62,56.62,0,0,1,3.35,10.82C545.66,114.69,544,114.27,543.66,114.17Z" style="fill:#263238"></path><path d="M543.06,116.61a4.15,4.15,0,0,1-1.52,1.4,1.85,1.85,0,0,1-1.1.16c-.82-.15-.9-.88-.8-1.52a4.34,4.34,0,0,1,.27-1A5.3,5.3,0,0,0,543.06,116.61Z" style="fill:#263238"></path><path d="M541.54,118a1.85,1.85,0,0,1-1.1.16c-.82-.15-.9-.88-.8-1.52A1.88,1.88,0,0,1,541.54,118Z" style="fill:#ff9bbc"></path><path d="M523.17,113.84c3.08.2,3.45-6.86,3.45-6.86s12.91-3,13.38-13.67a18,18,0,0,0,9.65,9.29S548.5,91,539.14,89.27c0,0-11.7-3.48-17.6,6S521.1,113.7,523.17,113.84Z" style="fill:#263238"></path><path d="M540,92.52a11.67,11.67,0,0,1-.29,4.88,12,12,0,0,1-2.21,4.44,9.05,9.05,0,0,1-.83.93l-.42.46-.48.4c-.32.26-.63.53-1,.78l-1,.65c-.18.1-.35.22-.53.31l-.56.26-1.12.51c-.78.27-1.57.49-2.35.7.73-.37,1.48-.66,2.2-1l1.05-.59.52-.29.48-.35c.33-.24.65-.47,1-.69s.59-.53.89-.79l.44-.39.4-.44a10.92,10.92,0,0,0,.77-.89,14,14,0,0,0,2.25-4.14,15.16,15.16,0,0,0,.59-2.32A14.68,14.68,0,0,0,540,92.52Z" style="fill:#263238"></path><path d="M525.07,113.11s-4-4.84-6.19-3.38,1,8.65,3.84,9.46a2.79,2.79,0,0,0,3.6-1.78Z" style="fill:#eb9481"></path><path d="M519.87,111.77a0,0,0,0,0,0,.07c2,.63,3.11,2.32,3.95,4.1a1.53,1.53,0,0,0-2.32-.24s0,.11.06.1a1.69,1.69,0,0,1,1.92.45,8.14,8.14,0,0,1,1,1.44c.1.17.4,0,.32-.14a.08.08,0,0,0,0,0C524.65,115.07,522.5,111.81,519.87,111.77Z" style="fill:#263238"></path><path d="M523,118.55a.72.72,0,0,0,.91.43.71.71,0,0,0-.48-1.33A.71.71,0,0,0,523,118.55Z" style="fill:#455a64"></path><path d="M523.33,118.43a.35.35,0,0,0,.43.2.32.32,0,0,0,.2-.42.33.33,0,0,0-.42-.21A.34.34,0,0,0,523.33,118.43Z" style="fill:#263238"></path><path d="M521.69,117.79a.49.49,0,0,0,.64.3.5.5,0,0,0,.3-.63.5.5,0,1,0-.94.33Z" style="fill:#455a64"></path><path d="M523,136.28c-6.35-1.78-13.68,20.26-8,22.07C521.66,160.49,528.47,137.82,523,136.28Z" style="fill:#eb9481"></path><path d="M515.42,147.14c-10.33-9.53-25.68-28.49-26.95-38.72C487.66,102,504.1,80.28,511.23,71c2.57-3.32,15.69,15.3,13.39,19.16-4,6.61-13,16.51-12.39,19.25.56,2.45,2.69,9.5,8.68,20.78C528.83,145.12,522.66,153.82,515.42,147.14Z" style="fill:#eb9481"></path><path d="M514.36,140.84s3.38,4.4,3.84,6.41,1.13,4.62,1.13,4.62" style="fill:#263238"></path><path d="M531.54,82.14c-2.08,4.68-8.94,9.72-8.94,9.72l-13.93-17.1s5.44-7.15,6.63-12.26c.29-1.26.82-7.55,2.37-13.91,1.76-7.23,4.52-14.58,5.27-15.08,1.43-1,3.69.83,3.66,6s-1.84,15.16-1.79,15.79a4.38,4.38,0,0,0,.18.61h0c.16.23,6.81,3.26,7.46,6.49S532.09,81.39,531.54,82.14Z" style="fill:#eb9481"></path><path d="M521,64.52s-2.59-12.26-1.58-14.66,4.93-17.74,6.35-18.73,3.69.84,3.66,6-1.84,15.16-1.79,15.79,4.06,10.91,4.14,12S521,64.52,521,64.52Z" style="fill:#eb9481"></path><path d="M518.54,57.82c0-1.37.1-2.74.16-4.11,0-.69.1-1.37.17-2.06,0-.34.07-.68.12-1,0-.17,0-.35.08-.52s.09-.38.14-.53c.77-2.61,1.56-5.25,2.37-7.86s1.62-5.23,2.51-7.85a8.55,8.55,0,0,1,1-1.88,3.46,3.46,0,0,1,.72-.81,1.75,1.75,0,0,1,1-.44,1.41,1.41,0,0,1,1,.43,3.26,3.26,0,0,1,.61.87,7.39,7.39,0,0,1,.62,2,8.9,8.9,0,0,0-.79-1.88,2.86,2.86,0,0,0-.63-.75,1.1,1.1,0,0,0-.83-.29,2.19,2.19,0,0,0-1.4,1.15,8.28,8.28,0,0,0-.81,1.82c-.75,2.61-1.54,5.25-2.35,7.87s-1.62,5.23-2.54,7.83a10,10,0,0,0-.41,2c-.1.67-.18,1.35-.26,2Z" style="fill:#263238"></path><path d="M523.29,66.15s-2.79-13.44-1.77-15.84,4.93-17.75,6.34-18.74,3.7.84,3.66,6-1.83,15.16-1.78,15.79,2.89,11,3,12S523.29,66.15,523.29,66.15Z" style="fill:#eb9481"></path><path d="M520.1,59.86c.1-1.68.26-3.35.43-5,.09-.84.2-1.67.32-2.51.06-.42.12-.84.2-1.25a9.52,9.52,0,0,1,.33-1.25c1-3.21,2-6.43,3-9.63l1.57-4.8.4-1.19a11.19,11.19,0,0,1,.47-1.21,4.81,4.81,0,0,1,.72-1.13,2.3,2.3,0,0,1,1.18-.79,1.3,1.3,0,0,1,.78.06,1.88,1.88,0,0,1,.6.43,3.78,3.78,0,0,1,.7,1.14,10.93,10.93,0,0,1,.68,2.47,14.57,14.57,0,0,1,0,5.06,15.74,15.74,0,0,0-.3-5,11.51,11.51,0,0,0-.75-2.35,3.64,3.64,0,0,0-.65-1,.92.92,0,0,0-.89-.3,1.76,1.76,0,0,0-.85.63,5.16,5.16,0,0,0-.6,1c-.32.72-.54,1.55-.8,2.35l-1.53,4.8c-1,3.2-2.06,6.4-3.16,9.59a8.42,8.42,0,0,0-.36,1.18c-.09.4-.18.81-.25,1.22-.16.82-.29,1.65-.43,2.48Z" style="fill:#263238"></path><path d="M522.85,66.14s.31-12.24,1.26-14.48,3-12.87,4.28-13.79,3.43.78,3.4,5.56-.08,10.47,0,11.06.87,9.88,1,10.87S522.85,66.14,522.85,66.14Z" style="fill:#eb9481"></path><path d="M521.92,62.85c.2-2.16.42-4.31.64-6.47.11-1.07.23-2.15.36-3.23l.09-.81a5.66,5.66,0,0,1,.16-.82c.13-.53.27-1.05.42-1.58.62-2.08,1.27-4.15,2-6.19.37-1,.74-2,1.14-3.06.2-.51.4-1,.62-1.51a9.71,9.71,0,0,1,.76-1.51,1.25,1.25,0,0,1,1.88-.33,4,4,0,0,1,1.15,1.34,7,7,0,0,1,.92,3.26c.05,2.18.05,4.34.05,6.51s0,4.36,0,6.48c0,1.07.11,2.16.18,3.24s.1,2.16.12,3.25c-.37-2.14-.67-4.28-.91-6.45l0-6.51c0-2.17,0-4.34-.1-6.49a6.48,6.48,0,0,0-.81-2.94,3.55,3.55,0,0,0-.92-1.12.59.59,0,0,0-.94.15,9.51,9.51,0,0,0-.71,1.39c-.22.48-.42,1-.63,1.48-.4,1-.78,2-1.15,3-.73,2-1.47,4.07-2.12,6.13-.16.51-.32,1-.45,1.54a13,13,0,0,0-.29,1.58l-.46,3.21Z" style="fill:#263238"></path></g><g id="freepik--character-2--inject-2"><path d="M460.57,458.17c-2.35.73-70.95-.75-73.46-2.42-1-.62,4.92-65.6,4.92-65.6l43.51.83-5,43.46s25.31,12,27.87,14.13S462.92,457.44,460.57,458.17Z" style="fill:#eb9481"></path><path d="M460.58,458.17c-2.36.73-71-.75-73.46-2.42-.45-.29.59-14.65,1.83-29.85h42.61l-1,8.54s25.31,12,27.88,14.13S462.92,457.44,460.58,458.17Z" style="fill:#ebebeb"></path><path d="M461,458.37c-2.4.75-71.56-.17-74.13-1.87-1-.64.27-11.67,1.44-23.3l42.83.95s25.07,12.23,27.69,14.39S463.42,457.62,461,458.37Z" style="fill:#49ADCA"></path><path d="M438.24,458.57c-21.2-.23-49.72-1-51.35-2.07-.94-.61.15-10.65,1.28-21.66Z" style="opacity:0.1"></path><path d="M460.1,455.61c-11.45-.51-57.66-1.51-69-1.15-.09,0-.09.07,0,.07,11.33.76,57.55,1.39,69,1.27C460.34,455.8,460.34,455.62,460.1,455.61Z" style="fill:#263238"></path><path d="M454.5,446a9.19,9.19,0,0,0-6.9,2.65,8.92,8.92,0,0,0-2.69,6.06c0,.07.13.08.14,0a10.64,10.64,0,0,1,9.45-8.58A.07.07,0,1,0,454.5,446Z" style="fill:#263238"></path><path d="M434.73,435.37c-4.58-.15-9.93,1.36-12.85,5.05-.12.14.09.3.23.23a63.21,63.21,0,0,1,12.69-4.71A.29.29,0,0,0,434.73,435.37Z" style="fill:#263238"></path><path d="M438.24,436.83c-4.58-.16-9.93,1.35-12.85,5-.12.14.09.3.23.23a63.21,63.21,0,0,1,12.69-4.71A.28.28,0,0,0,438.24,436.83Z" style="fill:#263238"></path><path d="M441.75,438.28c-4.58-.16-9.93,1.35-12.85,5-.12.14.09.3.23.23a63.21,63.21,0,0,1,12.69-4.71A.28.28,0,0,0,441.75,438.28Z" style="fill:#263238"></path><path d="M445.26,439.73c-4.58-.16-9.93,1.35-12.85,5-.12.14.09.3.23.24a62,62,0,0,1,12.69-4.71A.29.29,0,0,0,445.26,439.73Z" style="fill:#263238"></path><path d="M394.23,443.64c-5.14-.09-5.29,7.91-.14,8S399.38,443.73,394.23,443.64Z" style="fill:#fff"></path><path d="M439.94,423.25c-2.29-2-5.25-.15-6.72,1.81a24.13,24.13,0,0,0-4,9.06c-.11.45-.19.91-.26,1.36a5.4,5.4,0,0,1-.09.58s0,0,0,0v.16c0,.16,0,.32-.05.47a.12.12,0,0,0,.15.12.56.56,0,0,0,.46.45.41.41,0,0,0,.35,0c.91-.6,1.87-1.2,2.83-1.8l.49-.3a24.87,24.87,0,0,0,6.35-5.17C440.92,428.12,442.09,425.11,439.94,423.25Zm-5.83,9.61c-.77.55-1.56,1.07-2.33,1.6l-2,1.36-.27.2-.24.18.09-.27s0,0,0,0c.22-.6.44-1.18.65-1.77a44.48,44.48,0,0,1,2-4.68,25.45,25.45,0,0,1,1.73-3.05c1-1.49,5.61-5.23,6-.23C439.91,428.91,436,431.54,434.11,432.86Z" style="fill:#263238"></path><path d="M429.81,436.45a.13.13,0,0,0,0-.2,1.49,1.49,0,0,0-.28-.23.27.27,0,0,0-.1-.11s0,0,0,0a2.63,2.63,0,0,0-.47-.42,16.62,16.62,0,0,0-1.84-1.41,24.09,24.09,0,0,0-8.26-3.68c-2.4-.52-5.82.06-6.25,3.05,0,.1,0,.21,0,.32-.15,2.61,2.59,4,4.82,4.41a23.32,23.32,0,0,0,7.12-.13c1.64-.24,3.28-.54,4.9-.77h0A.55.55,0,0,0,429.81,436.45Zm-6.48.41c-2.32.26-7,.84-8.66-1.36a3.64,3.64,0,0,1-.81-1.71c-.33-2.33,4-2.4,5.46-2a26.06,26.06,0,0,1,3.32,1.15,26.35,26.35,0,0,1,2.41,1.12c1.29.65,2.54,1.35,3.81,2h0c.08.05.17.08.24.13a1.15,1.15,0,0,0-.26,0c-.23,0-.44,0-.67,0C426.56,436.44,425,436.68,423.33,436.86Z" style="fill:#263238"></path><path d="M431.81,424l-42.71-.6s8.46-102.3,8.11-104.27c-.45-2.52-30.75-121.34-30.75-121.34h40.76s32.15,110.75,33.3,121.42C442.39,336.46,431.81,424,431.81,424Z" style="fill:#263238"></path><path d="M375.42,207.4c3.65,12.92,28.29,110.32,28.68,116.88s-7,74.56-8.48,87.87c-.18,1.67-.36,3.33-.53,5a.11.11,0,0,1-.22,0c.88-13.35,8.19-85.49,8.4-92.17s-24.77-102.85-28-117.54A.06.06,0,0,1,375.42,207.4Z" style="fill:#fff"></path><path d="M378.26,207.4c3.65,12.92,28.3,110.32,28.69,116.88s-7,74.56-8.49,87.87c-.18,1.67-.36,3.33-.53,5a.11.11,0,0,1-.22,0c.88-13.35,8.19-85.49,8.4-92.17s-24.77-102.85-28-117.54A.06.06,0,0,1,378.26,207.4Z" style="fill:#fff"></path><path d="M366.45,197.81s11,43.05,20.09,78.94l17.06-78.94Z" style="fill:#37474f"></path><path d="M408.41,458.17c-2.35.73-71-.75-73.46-2.42-.46-.3,1.51-15.7,2.59-31.5,1.14-16.82,1.4-34.1,1.4-34.1l41.84.83-2.35,43.46s25.31,12,27.88,14.13S410.76,457.44,408.41,458.17Z" style="fill:#eb9481"></path><path d="M408.42,458.17c-2.36.73-71-.75-73.46-2.42-.45-.29.59-14.65,1.83-29.85H379.4l-1,8.54s25.31,12,27.88,14.13S410.76,457.44,408.42,458.17Z" style="fill:#ebebeb"></path><path d="M408.86,458.37c-2.4.75-71.56-.17-74.13-1.87-1-.64.27-11.67,1.44-23.3l42.83.95s25.07,12.23,27.69,14.39S411.26,457.62,408.86,458.37Z" style="fill:#49ADCA"></path><path d="M407.94,455.61c-11.45-.51-57.66-1.51-69-1.15-.09,0-.09.07,0,.07,11.33.76,57.55,1.39,69,1.27C408.18,455.8,408.18,455.62,407.94,455.61Z" style="fill:#263238"></path><path d="M402.34,446a9.19,9.19,0,0,0-6.9,2.65,8.92,8.92,0,0,0-2.69,6.06c0,.07.13.08.14,0a10.64,10.64,0,0,1,9.45-8.58A.07.07,0,1,0,402.34,446Z" style="fill:#263238"></path><path d="M382.57,435.37c-4.58-.15-9.93,1.36-12.85,5.05-.12.14.09.3.23.23a63.21,63.21,0,0,1,12.69-4.71A.29.29,0,0,0,382.57,435.37Z" style="fill:#263238"></path><path d="M386.08,436.83c-4.58-.16-9.93,1.35-12.85,5-.12.14.09.3.23.23a63.21,63.21,0,0,1,12.69-4.71A.28.28,0,0,0,386.08,436.83Z" style="fill:#263238"></path><path d="M389.59,438.28c-4.58-.16-9.93,1.35-12.85,5-.12.14.09.3.23.23a63.21,63.21,0,0,1,12.69-4.71A.28.28,0,0,0,389.59,438.28Z" style="fill:#263238"></path><path d="M393.1,439.73c-4.58-.16-9.93,1.35-12.85,5-.12.14.09.3.23.24a62,62,0,0,1,12.69-4.71A.29.29,0,0,0,393.1,439.73Z" style="fill:#263238"></path><path d="M342.07,443.64c-5.14-.09-5.29,7.91-.14,8S347.22,443.73,342.07,443.64Z" style="fill:#fff"></path><path d="M387.78,423.25c-2.29-2-5.25-.15-6.72,1.81a24.13,24.13,0,0,0-4,9.06c-.11.45-.19.91-.26,1.36,0,.2-.05.39-.08.58,0,0,0,0,0,0v.16c0,.16,0,.32-.05.47a.12.12,0,0,0,.15.12.58.58,0,0,0,.46.45.41.41,0,0,0,.35,0c.91-.6,1.87-1.2,2.83-1.8.17-.09.32-.2.49-.3a24.7,24.7,0,0,0,6.35-5.17C388.76,428.12,389.93,425.11,387.78,423.25ZM382,432.86c-.78.55-1.57,1.07-2.34,1.6l-2,1.36-.26.2-.25.18.09-.27s0,0,0,0c.22-.6.44-1.18.65-1.77a44.48,44.48,0,0,1,2-4.68,25.45,25.45,0,0,1,1.73-3.05c1-1.49,5.61-5.23,6-.23C387.75,428.91,383.86,431.54,382,432.86Z" style="fill:#263238"></path><path d="M377.65,436.45a.13.13,0,0,0,0-.2,1.84,1.84,0,0,0-.27-.23.29.29,0,0,0-.11-.11s0,0,0,0a2.63,2.63,0,0,0-.47-.42,17.49,17.49,0,0,0-1.83-1.41,24.23,24.23,0,0,0-8.27-3.68c-2.4-.52-5.82.06-6.25,3.05,0,.1,0,.21,0,.32-.15,2.61,2.59,4,4.82,4.41a23.32,23.32,0,0,0,7.12-.13c1.64-.24,3.28-.54,4.9-.77h0A.55.55,0,0,0,377.65,436.45Zm-6.48.41c-2.32.26-7,.84-8.65-1.36a3.58,3.58,0,0,1-.82-1.71c-.33-2.33,4-2.4,5.46-2a26.06,26.06,0,0,1,3.32,1.15,26.35,26.35,0,0,1,2.41,1.12c1.29.65,2.54,1.35,3.82,2h0c.08.05.17.08.24.13a1.22,1.22,0,0,0-.26,0c-.23,0-.44,0-.67,0C374.4,436.44,372.79,436.68,371.17,436.86Z" style="fill:#263238"></path><path d="M405.9,197.79s-3.23,31.25-7,36.4A72.94,72.94,0,0,0,387,240.08s-2.93,76.77-2.88,81.4c.19,17.32-4.24,101.69-4.24,101.69l-43.06-.41s4.46-95.41,4.48-101.76c0-6.13,2.93-44.85,5.53-78.41,0,0-3.83-10.72-3.41-16.14,1-13.13,6.91-28.64,6.91-28.64Z" style="fill:#263238"></path><path d="M392.88,224.25c.09-1.09.19-2.17.28-3.26.18-2,.46-4,.68-6,.5-4.51,1-9,1.74-13.52,0-.11.19-.09.19,0-.06,1.8-.15,3.59-.29,5.38s-.2,3.59-.34,5.38c-.27,3.56-.54,7.12-.91,10.66-.15,1.36-.84,3.84,1.14,4.14,1.56.23,2.54-1.37,3-2.65.8-2.44,2.34-18.84,2.73-22.76,0-.11.19-.09.19,0,.13,4-.84,16.46-1,18.36a20.34,20.34,0,0,1-1,5.37,4.31,4.31,0,0,1-3.05,2.78h-.09a.15.15,0,0,1,.06.11c0,.63.07,1.27,0,1.9s-.11,1.26-.19,1.88a12.14,12.14,0,0,1-.37,1.89,8.81,8.81,0,0,1-.28.87,6.48,6.48,0,0,1-.46.81c-.06.12-.19.06-.21-.05h0c0-.1,0-.2,0-.31s0,0,0,0h0a5.23,5.23,0,0,1,0-.56c0-.3.07-.61.12-.91.09-.61.22-1.22.34-1.82s.21-1.21.33-1.82.28-1.23.38-1.86a.13.13,0,0,1,0-.06,2.79,2.79,0,0,1-2.82-1.53A4.88,4.88,0,0,1,392.88,224.25Z" style="fill:#37474f"></path><path d="M384.86,240.46a89.19,89.19,0,0,1,16.9-7.49.08.08,0,0,1,.06.15c-2.89,1.1-9.51,5.22-16.85,7.53C384.86,240.68,384.76,240.51,384.86,240.46Z" style="fill:#37474f"></path><path d="M359.44,218.75c2.43-.15,10.15-1.39,13.16-4.14,2.26-2.05,4.52-10.19,5.34-12.81,0-.11.21-.09.2,0-.24,3-1.89,11.7-4.35,14.09-3.13,3-11.71,3.31-14.34,3.1C359.29,219,359.27,218.76,359.44,218.75Z" style="fill:#37474f"></path><path d="M412.14,217.24a5.27,5.27,0,0,1-4.62-2.88c-1.12-1.88-3-10.31-3.6-12.86,0-.1-.09-.07-.08,0,.33,2.93,1.71,11.5,3,13.69a4.47,4.47,0,0,0,5.37,2.27C412.23,217.47,412.22,217.24,412.14,217.24Z" style="fill:#37474f"></path><path d="M343.46,416.54l9.73-175.24c-.12-.73-2.86-10.06-3.11-14.82-.26-5,4.95-24.66,5.17-25.5.08-.28.46-.21.39.07s-4.76,20.5-4.51,25.37,3.09,14.68,3.11,14.76-10.48,175.38-10.48,175.38C343.75,416.84,343.44,416.83,343.46,416.54Z" style="fill:#fff"></path><path d="M346.1,416.54l9.74-175.24c-.12-.73-2.86-10.06-3.11-14.82-.26-5,4.95-24.66,5.17-25.5.08-.28.46-.21.38.07s-4.75,20.5-4.5,25.37,3.09,14.68,3.1,14.76-10.47,175.38-10.47,175.38C346.4,416.84,346.09,416.83,346.1,416.54Z" style="fill:#fff"></path><path d="M371.79,100.06a4.76,4.76,0,0,0-1.7.81c-2.3,1.73-2.93,4.74-3,7.45,0,2.89.6,6-.41,8.79a4.78,4.78,0,0,1-2.09,2.69,4.4,4.4,0,0,1-3.67,0c-1.26-.44-2.65-1.25-4-.83a3.78,3.78,0,0,0-2.25,2.53c-.93,2.82.7,5.8.92,8.62a15,15,0,0,1-1.93,8.68,14.87,14.87,0,0,1-10,7.07c-1.52.27-3.07.21-4.59.42a5.33,5.33,0,0,0-3.81,1.93c-.65,1-.82,5.23,2.17,9.51.21.31-.36.68-.69.44a18.1,18.1,0,0,1-1.82-1.42,20.14,20.14,0,0,1-6.73-17.06,21.06,21.06,0,0,1,3.49-9.52,34.11,34.11,0,0,0,3.06-4.82,10.53,10.53,0,0,0,.82-4.9c-.17-3.21-1.1-6.34-.71-9.58a17.75,17.75,0,0,1,3.2-8,20.84,20.84,0,0,1,15.15-8.5C359.17,93.83,372.13,100,371.79,100.06Z" style="fill:#263238"></path><path d="M371.6,100.11a8.21,8.21,0,0,0-3.15,2,6.72,6.72,0,0,0-1.52,3c-.61,2.47-.17,5,.19,7.41s.58,4.78-.5,6.94a5.57,5.57,0,0,1-2,2.3,4.28,4.28,0,0,1-3.27.37c-2-.48-4.46-1.75-6.41-.3s-1.62,4.23-1.44,6.28c.44,5,1.74,11.42-2.55,15.22a18.61,18.61,0,0,1-8,3.65c-2,.47-4.56,1.05-5.55,3.07,0,.08.08.12.12,0,1.08-2.13,3.74-2.27,5.81-2.66a19.56,19.56,0,0,0,7-2.66,9.56,9.56,0,0,0,4.08-6,22.27,22.27,0,0,0,.17-7.64c-.15-1.31-.32-2.61-.43-3.92a8.24,8.24,0,0,1,.29-3.56,2.79,2.79,0,0,1,2.78-1.82,14.23,14.23,0,0,1,3.57.82,5.66,5.66,0,0,0,3.21.07,5.14,5.14,0,0,0,2.19-1.45,8.09,8.09,0,0,0,2-5.53c0-2.84-.95-5.59-.89-8.43a8,8,0,0,1,1.07-4.2,8.19,8.19,0,0,1,3.44-2.68A.15.15,0,0,0,371.6,100.11Z" style="fill:#263238"></path><path d="M351.09,92.8c-6.07.44-11.29,4.61-13.82,10a21.13,21.13,0,0,0-1.86,9.69c.11,3.11.65,6.27.08,9.36-.62,3.43-3,5.89-5,8.62a18.79,18.79,0,0,0-3.17,7.39,20,20,0,0,0,3.08,14.93c.38.55.78,1.08,1.21,1.59.05.06.15,0,.1-.08a19.24,19.24,0,0,1-3.95-14.71,18.74,18.74,0,0,1,2.5-7.21c1.63-2.71,4-4.91,5.33-7.85,1.2-2.75,1.05-5.83.82-8.75-.25-3.2-.48-6.35.35-9.49A17.15,17.15,0,0,1,348.68,94c6.6-1.74,13.14,1,18.8,4.22l2.26,1.3c.08.05.17-.07.09-.12C364.24,95.81,358,92.31,351.09,92.8Z" style="fill:#263238"></path><path d="M374,97.23a2.9,2.9,0,0,0-2.8-.73c-.59.36-2.4,5.42-1.77,6.59s2.95.34,2.95.34Z" style="fill:#49ADCA"></path><path d="M382.63,145.56c5.13,5.83,44.17,42.92,57.62,32.8,10.55-7.94,14.21-34.63,15.34-39.72.38-1.72-25.9-7.89-26.54-4.73-.81,4-3.28,15.19-3.73,15.09-3.07-.71-19.83-8.27-36.63-13.89C380.93,132.52,375.67,137.66,382.63,145.56Z" style="fill:#eb9481"></path><path d="M459.79,119.92c.44,6-3.44,18.51-5.53,21.17s-23.65-3.21-25-6.43-1.25-23.41,2.2-28.43S459.34,113.74,459.79,119.92Z" style="fill:#eb9481"></path><rect x="414.15" y="95.38" width="9.63" height="28.27" transform="translate(62.18 -135.9) rotate(19.87)" style="fill:#455a64"></rect><rect x="409.95" y="95.32" width="4.63" height="23.55" transform="translate(60.96 -133.77) rotate(19.87)" style="fill:#455a64"></rect><rect x="401.58" y="106.33" width="23.55" height="2.32" transform="translate(171.75 459.68) rotate(-70.13)" style="fill:#263238"></rect><rect x="459.49" y="111.76" width="9.63" height="28.27" transform="translate(858.17 402.13) rotate(-160.13)" style="fill:#455a64"></rect><rect x="468.7" y="116.54" width="4.63" height="23.55" transform="translate(870.36 409.11) rotate(-160.13)" style="fill:#455a64"></rect><rect x="458.15" y="126.77" width="23.55" height="2.32" transform="translate(189.87 526.37) rotate(-70.13)" style="fill:#263238"></rect><rect x="422.35" y="113.53" width="38.58" height="8.36" transform="translate(66.22 -142.99) rotate(19.85)" style="fill:#37474f"></rect><path d="M427.72,115c1.84,2.58,3.83-1.06,3.83-1.06s-1.61,5.93,1.31,7.87,5.08-2.63,5.24-3c-.08.31-1.42,5.8,1.72,7.44s4.75-3.18,4.84-3.5c0,.32.29,4.57,3,5.27,4.58,1.21,4.17-9.67,6.9-12.36,0,0,5.1,4.09,5.27,4.18,0,0-.17-10.36-4-13.83a3.3,3.3,0,0,0-4.13-.3s.31-3.35-2.12-4.71c-1.24-.7-3.47.67-3.47.67A4.13,4.13,0,0,0,444,98c-1.78-.87-3.74.64-3.74.64S439.15,96,437,95.68C432.79,95.07,423.8,109.49,427.72,115Z" style="fill:#eb9481"></path><path d="M439.87,98.81s0-.1-.07-.06a29.5,29.5,0,0,0-8.38,15.41c0,.18.26.32.33.12A60.5,60.5,0,0,1,439.87,98.81Z" style="fill:#263238"></path><path d="M446.06,101.66s0-.12-.09-.07a27.6,27.6,0,0,0-8.1,17.37c0,.23.21.45.24.19C438.68,114.71,442.77,106.06,446.06,101.66Z" style="fill:#263238"></path><path d="M444.8,123.31c.59-6.42,3.17-12,6.65-17.36.05-.07-.05-.13-.11-.08-2.41,2.16-4.28,5.8-5.49,8.76a17,17,0,0,0-1.27,8.66C444.59,123.4,444.79,123.44,444.8,123.31Z" style="fill:#263238"></path><path d="M431.55,114a19.11,19.11,0,0,0-.29,3.53,6.53,6.53,0,0,0,.79,3.3,2.09,2.09,0,0,0,1.21.92,3,3,0,0,0,1.58,0,3.79,3.79,0,0,0,2.27-2.08l1.14-2.34-.26,2.59a10.73,10.73,0,0,0,.19,3.44A3.78,3.78,0,0,0,439.9,126a2.15,2.15,0,0,0,2.71-.34,6.47,6.47,0,0,0,1.55-2.9l.83-3,.19,3.06a10.13,10.13,0,0,0,.47,2.5,4.11,4.11,0,0,0,1.28,2,2,2,0,0,0,2.05.23,4.37,4.37,0,0,0,1.55-1.86,33.85,33.85,0,0,0,1.82-5c.27-.86.54-1.72.86-2.57a6.23,6.23,0,0,1,1.31-2.36,6.91,6.91,0,0,0-1.08,2.43c-.24.87-.44,1.74-.65,2.62A29.27,29.27,0,0,1,451.2,126a5.17,5.17,0,0,1-1.79,2.29,2.79,2.79,0,0,1-3-.22,5.08,5.08,0,0,1-1.65-2.44,10.57,10.57,0,0,1-.57-2.79l1,.1a7.48,7.48,0,0,1-1.8,3.44,3.16,3.16,0,0,1-1.91.94,3.62,3.62,0,0,1-2.06-.46,4.78,4.78,0,0,1-2.16-3.29,11.17,11.17,0,0,1-.15-3.78l.88.25a4.57,4.57,0,0,1-3,2.43,3.88,3.88,0,0,1-1.94-.14,2.75,2.75,0,0,1-1.5-1.24,6.69,6.69,0,0,1-.61-3.6A15.62,15.62,0,0,1,431.55,114Z" style="fill:#263238"></path><path d="M428.69,131.22s-11.67-22.52-.63-22.77c3.28-.07,16.84,3.54,16.16,6.28-.87,3.53-6.81,3.08-10.49,2.21,0,0,5,7.1,1.15,12.09A6.27,6.27,0,0,1,428.69,131.22Z" style="fill:#eb9481"></path><path d="M427.14,108.53a13.56,13.56,0,0,1,3.87,0,28.83,28.83,0,0,1,3.81.75,44.66,44.66,0,0,1,7.35,2.53,7,7,0,0,1,1.75,1.11,2.69,2.69,0,0,1,.7.94,1.87,1.87,0,0,1,.17.63,2.21,2.21,0,0,1-.06.64,3.26,3.26,0,0,1-1.3,1.85,6,6,0,0,1-1.94.85,11.51,11.51,0,0,1-4,.2,26,26,0,0,1-3.86-.68l.46-.7a15.08,15.08,0,0,1,1.39,2.63,14.61,14.61,0,0,1,.87,2.82,10.07,10.07,0,0,1,.12,2.95,7.75,7.75,0,0,1-.85,2.78,8.52,8.52,0,0,0,.53-2.8,9.79,9.79,0,0,0-.36-2.8,13.18,13.18,0,0,0-1-2.65,15.57,15.57,0,0,0-1.44-2.4l-.69-.92,1.15.22a29.82,29.82,0,0,0,3.74.54,11.36,11.36,0,0,0,3.65-.23,3.2,3.2,0,0,0,2.47-1.9c.27-.84-.9-1.62-2-2.17s-2.3-1-3.49-1.5-2.38-.91-3.6-1.29A24.54,24.54,0,0,0,427.14,108.53Z" style="fill:#263238"></path><path d="M382.63,145.56c5.13,5.83,44.17,42.92,57.62,32.8,10.55-7.94,16.53-30.09,17.52-38.45l-30-3.59c-.64,4-2,12.78-2.41,12.68-3.07-.71-19.83-8.27-36.63-13.89C380.93,132.52,375.67,137.66,382.63,145.56Z" style="fill:#49ADCA"></path><path d="M423.31,156a20.07,20.07,0,0,1,.39-2.66,25.13,25.13,0,0,1,1.81-5.06c0-.07.19-.05.17,0-.54,1.67-.87,3.38-1.26,5.06-.2.84-.38,1.67-.54,2.51s-.37,1.72-.48,2.57c0,.05-.12.06-.12,0C423.28,157.66,423.25,156.86,423.31,156Z" style="fill:#263238"></path><path d="M438.7,179.27c-14.68,6.56-51.12-28.1-56.07-33.71-5.27-6-3.54-10.38,1-11Z" style="opacity:0.1"></path><path d="M407.22,197.81l-2-17.49s5.68-6.88,1.88-14.85c-1.92-4-14-25.94-21-30.89-6.54-4.63-14.58,0-17.56,4.11-8.56,11.87-13.76,20.61-18.19,59.12Z" style="fill:#eb9481"></path><path d="M408.49,192l-3.27-11.64s5.68-6.88,1.88-14.85c-1.92-4-14-25.94-21-30.89-6.54-4.63-14.58,0-17.56,4.11-8.56,11.87-12.9,26-19.16,52.75Z" style="fill:#49ADCA"></path><path d="M395.2,177.37a61.13,61.13,0,0,0-8.8,1.63c-1.43.4-2.83.86-4.23,1.35-.7.25-1.4.47-2.1.68a9.38,9.38,0,0,1-2.27.48c-.07,0-.06.1,0,.1a16,16,0,0,0,2.19-.08,14.66,14.66,0,0,0,2.07-.44c1.46-.38,2.89-.84,4.34-1.24,2.93-.82,5.85-1.63,8.83-2.23A.13.13,0,0,0,395.2,177.37Z" style="fill:#263238"></path><path d="M402.59,179.86a64.9,64.9,0,0,0-7.38-.21c-1.23,0-2.45.15-3.67.3-.58.06-1.17.14-1.75.23s-1.27.27-1.91.36a.06.06,0,0,0,0,.11c.61-.07,1.23,0,1.84-.06l1.84-.08,3.68-.16c2.46-.13,4.9-.24,7.36-.29C402.73,180.06,402.72,179.87,402.59,179.86Z" style="fill:#263238"></path><path d="M298.35,112.39c-2.41.27-1.57-2.83-3.77-3.18s-3,2.05-4.36,1.61-.2-2.81-2.91-3-3.57,3.49-5.26,4.24-5.12-.94-5.74,2,5.36,4.35,9.57,6.73,8.69,5.86,12.62,5.87c4.22,0,6.23-2.6,9.47-2.82s10.49,2.25,13.83-.36,8.55-4.55,8.83-7.59-3.82-2-5.09-2.2-.94-3.6-3.37-4.23-3.16.86-5.32.87-2.8-4.22-5.86-3.68-2.4,2.31-3.75,3-3.78-1.19-5.59-.53S300.5,112.14,298.35,112.39Z" style="fill:#455a64"></path><path d="M308,115c2.48.29,1.64-2.81,3.89-3.16s3.1,2.07,4.48,1.64.22-2.81,3-3,3.65,3.51,5.39,4.27,5.27-.91,5.89,2-5.54,4.32-9.87,6.67-9,5.82-13,5.81c-4.33,0-6.38-2.64-9.71-2.88s-10.81,2.2-14.22-.43-8.77-4.59-9-7.64,3.94-1.95,5.25-2.17,1-3.59,3.49-4.21,3.23.87,5.45.9,2.91-4.21,6.05-3.65,2.45,2.32,3.84,3,3.89-1.17,5.74-.5S305.74,114.77,308,115Z" style="fill:#37474f"></path><path d="M280.67,113.08a6.14,6.14,0,0,0-2.09,7.88c1.49,3.33,5.82,3.18,8,1.92s4.11-4.65,2.56-7.75C287.76,112.45,284.53,110.83,280.67,113.08Z" style="fill:#49ADCA"></path><path d="M280.67,113.08a6.14,6.14,0,0,0-2.09,7.88c1.49,3.33,5.82,3.18,8,1.92s4.11-4.65,2.56-7.75C287.76,112.45,284.53,110.83,280.67,113.08Z" style="opacity:0.1"></path><path d="M281.24,114a5,5,0,0,0-1.71,6.43c1.23,2.73,4.76,2.6,6.52,1.57s3.35-3.8,2.09-6.33C287,113.44,284.4,112.12,281.24,114Z" style="fill:#49ADCA"></path><path d="M284.75,115.65c.15.13.72-.29.44-.53S284.56,115.48,284.75,115.65Z" style="fill:#fff"></path><path d="M285.83,118.72c-.09.18.46.63.62.29S286,118.5,285.83,118.72Z" style="fill:#fff"></path><path d="M287.19,117.65c0,.19.72.26.67-.1S287.16,117.4,287.19,117.65Z" style="fill:#fff"></path><path d="M284.8,114.33c.19,0,.27-.72-.09-.67S284.55,114.36,284.8,114.33Z" style="fill:#fff"></path><path d="M281.23,116.59c.06-.18-.55-.54-.65-.19S281.15,116.83,281.23,116.59Z" style="fill:#fff"></path><path d="M282.5,120.65c-.15-.13-.71.32-.42.54S282.69,120.81,282.5,120.65Z" style="fill:#fff"></path><path d="M283.76,120.49c-.19,0-.49.6-.13.67S284,120.54,283.76,120.49Z" style="fill:#fff"></path><path d="M282.63,117.6c.14-.13-.21-.75-.48-.49S282.44,117.77,282.63,117.6Z" style="fill:#fff"></path><path d="M278.77,117.84s3.49-.16,3.9.57-2.25,3.66-2.64,3.37S278.32,119,278.77,117.84Z" style="fill:#49ADCA"></path><path d="M278.77,117.84s3.49-.16,3.9.57-2.25,3.66-2.64,3.37S278.32,119,278.77,117.84Z" style="opacity:0.1"></path><path d="M284.4,122.83s-.81-3.41-.16-3.94,4,1.53,3.79,2S285.61,123.06,284.4,122.83Z" style="fill:#49ADCA"></path><path d="M284.4,122.83s-.81-3.41-.16-3.94,4,1.53,3.79,2S285.61,123.06,284.4,122.83Z" style="opacity:0.1"></path><path d="M289.22,117s-3.45.6-4-.07,1.78-3.92,2.2-3.67S289.52,115.77,289.22,117Z" style="fill:#49ADCA"></path><path d="M289.22,117s-3.45.6-4-.07,1.78-3.92,2.2-3.67S289.52,115.77,289.22,117Z" style="opacity:0.1"></path><path d="M283.74,112.53s.6,3.45-.08,4-3.91-1.77-3.67-2.2S282.54,112.23,283.74,112.53Z" style="fill:#49ADCA"></path><path d="M283.74,112.53s.6,3.45-.08,4-3.91-1.77-3.67-2.2S282.54,112.23,283.74,112.53Z" style="opacity:0.1"></path><path d="M299.4,106.4a6.14,6.14,0,0,0-7.14,3.92c-1.38,3.39,1.72,6.41,4.12,7.1s6.2-.24,7.37-3.5C304.76,111.09,303.7,107.64,299.4,106.4Z" style="fill:#49ADCA"></path><path d="M299.4,106.4a6.14,6.14,0,0,0-7.14,3.92c-1.38,3.39,1.72,6.41,4.12,7.1s6.2-.24,7.37-3.5C304.76,111.09,303.7,107.64,299.4,106.4Z" style="opacity:0.1"></path><path d="M299.16,107.42a5,5,0,0,0-5.83,3.21c-1.12,2.76,1.4,5.23,3.37,5.79s5.06-.2,6-2.86C303.54,111.25,302.67,108.43,299.16,107.42Z" style="fill:#49ADCA"></path><path d="M300.36,111.12c0,.2.71.32.69-.05S300.36,110.87,300.36,111.12Z" style="fill:#fff"></path><path d="M298.89,114c-.19,0-.14.76.21.65S299.13,114,298.89,114Z" style="fill:#fff"></path><path d="M300.6,114.26c-.13.15.31.72.54.42S300.77,114.07,300.6,114.26Z" style="fill:#fff"></path><path d="M301.35,110.25c.14.13.71-.3.42-.53S301.16,110.08,301.35,110.25Z" style="fill:#fff"></path><path d="M297.25,109.23c.18-.08,0-.78-.31-.61S297,109.34,297.25,109.23Z" style="fill:#fff"></path><path d="M295.19,112.94c0-.19-.72-.29-.68.08S295.21,113.19,295.19,112.94Z" style="fill:#fff"></path><path d="M296.18,113.75c-.1-.17-.77.06-.57.37S296.31,114,296.18,113.75Z" style="fill:#fff"></path><path d="M297.49,110.94c.19,0,.39-.67,0-.69S297.24,110.92,297.49,110.94Z" style="fill:#fff"></path><path d="M294.65,108.31s2.53,2.42,2.28,3.22-4.21.89-4.26.41S293.5,108.77,294.65,108.31Z" style="fill:#49ADCA"></path><path d="M294.65,108.31s2.53,2.42,2.28,3.22-4.21.89-4.26.41S293.5,108.77,294.65,108.31Z" style="opacity:0.1"></path><path d="M294.93,115.83s1.9-2.94,2.74-2.85,1.66,4,1.19,4.11S295.6,116.86,294.93,115.83Z" style="fill:#49ADCA"></path><path d="M294.93,115.83s1.9-2.94,2.74-2.85,1.66,4,1.19,4.11S295.6,116.86,294.93,115.83Z" style="opacity:0.1"></path><path d="M302.49,115.27s-2.81-2.08-2.67-2.91,4.06-1.42,4.17-.94S303.57,114.66,302.49,115.27Z" style="fill:#49ADCA"></path><path d="M302.49,115.27s-2.81-2.08-2.67-2.91,4.06-1.42,4.17-.94S303.57,114.66,302.49,115.27Z" style="opacity:0.1"></path><path d="M301.92,108.24s-2.08,2.81-2.91,2.67-1.42-4.06-.94-4.17S301.31,107.16,301.92,108.24Z" style="fill:#49ADCA"></path><path d="M301.92,108.24s-2.08,2.81-2.91,2.67-1.42-4.06-.94-4.17S301.31,107.16,301.92,108.24Z" style="opacity:0.1"></path><path d="M305.34,123.25a6.14,6.14,0,0,0,8.15.19c2.89-2.23,1.73-6.4,0-8.2s-5.48-2.91-8.13-.67C303.06,116.5,302.25,120,305.34,123.25Z" style="fill:#49ADCA"></path><path d="M305.34,123.25a6.14,6.14,0,0,0,8.15.19c2.89-2.23,1.73-6.4,0-8.2s-5.48-2.91-8.13-.67C303.06,116.5,302.25,120,305.34,123.25Z" style="opacity:0.1"></path><path d="M306.06,122.49a5,5,0,0,0,6.65.15c2.36-1.82,1.42-5.23,0-6.7s-4.47-2.37-6.64-.55C304.2,117,303.53,119.84,306.06,122.49Z" style="fill:#49ADCA"></path><path d="M306.88,118.68c.09-.17-.45-.63-.62-.3S306.76,118.9,306.88,118.68Z" style="fill:#fff"></path><path d="M309.62,116.91c.18,0,.5-.59.13-.67S309.37,116.85,309.62,116.91Z" style="fill:#fff"></path><path d="M308.25,115.85c.18-.07.09-.77-.25-.64S308,115.93,308.25,115.85Z" style="fill:#fff"></path><path d="M305.59,118.94c-.06-.18-.77-.1-.64.25S305.67,119.18,305.59,118.94Z" style="fill:#fff"></path><path d="M308.62,121.88c-.2,0-.4.67,0,.68S308.87,121.9,308.62,121.88Z" style="fill:#fff"></path><path d="M312.27,119.7c-.09.18.47.62.62.28S312.38,119.48,312.27,119.7Z" style="fill:#fff"></path><path d="M311.81,118.51c0,.2.7.34.69,0S311.81,118.26,311.81,118.51Z" style="fill:#fff"></path><path d="M309.27,120.29c-.16-.11-.68.38-.36.57S309.48,120.43,309.27,120.29Z" style="fill:#fff"></path><path d="M310.41,124s-1-3.37-.36-3.94,4.09,1.35,3.89,1.79S311.63,124.16,310.41,124Z" style="fill:#49ADCA"></path><path d="M310.41,124s-1-3.37-.36-3.94,4.09,1.35,3.89,1.79S311.63,124.16,310.41,124Z" style="opacity:0.1"></path><path d="M313.94,117.35s-3.12,1.57-3.79,1.07.55-4.26,1-4.15S313.88,116.11,313.94,117.35Z" style="fill:#49ADCA"></path><path d="M313.94,117.35s-3.12,1.57-3.79,1.07.55-4.26,1-4.15S313.88,116.11,313.94,117.35Z" style="opacity:0.1"></path><path d="M307.12,114s1.39,3.21.85,3.85-4.22-.81-4.08-1.28S305.89,114,307.12,114Z" style="fill:#49ADCA"></path><path d="M307.12,114s1.39,3.21.85,3.85-4.22-.81-4.08-1.28S305.89,114,307.12,114Z" style="opacity:0.1"></path><path d="M304.09,120.4s3.21-1.39,3.85-.86-.81,4.23-1.28,4.09S304.07,121.63,304.09,120.4Z" style="fill:#49ADCA"></path><path d="M304.09,120.4s3.21-1.39,3.85-.86-.81,4.23-1.28,4.09S304.07,121.63,304.09,120.4Z" style="opacity:0.1"></path><path d="M319.38,118.52a6.14,6.14,0,0,0,8.15.19c2.89-2.23,1.73-6.4,0-8.2s-5.48-2.91-8.13-.67C317.1,111.77,316.29,115.29,319.38,118.52Z" style="fill:#49ADCA"></path><path d="M319.38,118.52a6.14,6.14,0,0,0,8.15.19c2.89-2.23,1.73-6.4,0-8.2s-5.48-2.91-8.13-.67C317.1,111.77,316.29,115.29,319.38,118.52Z" style="opacity:0.1"></path><path d="M320.09,117.76a5,5,0,0,0,6.66.15c2.36-1.82,1.42-5.23,0-6.7s-4.47-2.37-6.64-.55C318.23,112.24,317.57,115.11,320.09,117.76Z" style="fill:#49ADCA"></path><path d="M320.92,114c.09-.17-.45-.63-.62-.3S320.8,114.17,320.92,114Z" style="fill:#fff"></path><path d="M323.66,112.18c.18,0,.5-.59.13-.67S323.41,112.12,323.66,112.18Z" style="fill:#fff"></path><path d="M322.29,111.12c.18-.07.09-.77-.25-.64S322.05,111.2,322.29,111.12Z" style="fill:#fff"></path><path d="M319.63,114.21c-.06-.18-.77-.1-.64.25S319.71,114.45,319.63,114.21Z" style="fill:#fff"></path><path d="M322.66,117.15c-.2,0-.4.67,0,.68S322.91,117.17,322.66,117.15Z" style="fill:#fff"></path><path d="M326.31,115c-.09.18.47.62.62.28S326.42,114.75,326.31,115Z" style="fill:#fff"></path><path d="M325.85,113.78c0,.2.7.34.69,0S325.85,113.53,325.85,113.78Z" style="fill:#fff"></path><path d="M323.31,115.56c-.16-.11-.68.38-.36.57S323.52,115.7,323.31,115.56Z" style="fill:#fff"></path><path d="M324.45,119.26s-1-3.37-.36-3.94,4.09,1.35,3.89,1.79S325.67,119.43,324.45,119.26Z" style="fill:#49ADCA"></path><path d="M324.45,119.26s-1-3.37-.36-3.94,4.09,1.35,3.89,1.79S325.67,119.43,324.45,119.26Z" style="opacity:0.1"></path><path d="M328,112.62s-3.12,1.57-3.79,1.07.55-4.26,1-4.15S327.92,111.38,328,112.62Z" style="fill:#49ADCA"></path><path d="M328,112.62s-3.12,1.57-3.79,1.07.55-4.26,1-4.15S327.92,111.38,328,112.62Z" style="opacity:0.1"></path><path d="M321.16,109.3s1.39,3.21.85,3.85-4.22-.81-4.08-1.28S319.93,109.28,321.16,109.3Z" style="fill:#49ADCA"></path><path d="M321.16,109.3s1.39,3.21.85,3.85-4.22-.81-4.08-1.28S319.93,109.28,321.16,109.3Z" style="opacity:0.1"></path><path d="M318.12,115.67s3.22-1.39,3.86-.86-.81,4.23-1.28,4.09S318.11,116.9,318.12,115.67Z" style="fill:#49ADCA"></path><path d="M318.12,115.67s3.22-1.39,3.86-.86-.81,4.23-1.28,4.09S318.11,116.9,318.12,115.67Z" style="opacity:0.1"></path><polygon points="273.53 118.49 285.47 137.21 319.83 137.3 331.86 118.65 273.53 118.49" style="fill:#ebebeb"></polygon><path d="M377.16,144.53c-3.58,6.89-32.57,52.27-48.06,45.67C317,185,308.77,162.49,303.93,152.51c-1.23-2.55,23.27-11.8,25.38-6.83,1.59,3.76,6.82,12.65,7.23,12.44,2.82-1.42,17.27-12.79,32.22-22.28C375.67,131.46,382,135.19,377.16,144.53Z" style="fill:#eb9481"></path><path d="M321.69,136.16c4.17,2.62,7.95,10.14,7.95,10.14L307,157.58s-4.35-6.66-8-8.77c-1.06-.62-6.49-4.06-12-7.06-6.22-3.41-12.31-7.78-12.58-8.59-.53-1.56,1.68-3.2,6.41-1.89s13.51,5.45,14.1,5.56a4.2,4.2,0,0,0,.6,0h0c.25-.09,4.69-5.46,7.83-5.26S321.13,135.46,321.69,136.16Z" style="fill:#eb9481"></path><path d="M302.52,142.65s-11.93-.65-13.89-2.18S273.51,131.53,273,130s1.69-3.19,6.42-1.89,13.5,5.45,14.1,5.56,11-1,12-.85S302.52,142.65,302.52,142.65Z" style="fill:#eb9481"></path><path d="M295.75,143.24c-1.26-.36-2.5-.77-3.75-1.18-.62-.21-1.24-.43-1.85-.66-.31-.11-.62-.23-.92-.36l-.46-.2c-.16-.09-.33-.18-.45-.26-2.22-1.37-4.45-2.75-6.66-4.14s-4.42-2.79-6.6-4.26a8.33,8.33,0,0,1-1.51-1.34A3.92,3.92,0,0,1,273,130a1.7,1.7,0,0,1-.15-1.07,1.42,1.42,0,0,1,.66-.85,3,3,0,0,1,.95-.35,7.66,7.66,0,0,1,2-.08,8.88,8.88,0,0,0-1.93.26,3.13,3.13,0,0,0-.85.39,1,1,0,0,0-.46.7,2.07,2.07,0,0,0,.7,1.58,8.21,8.21,0,0,0,1.48,1.19c2.22,1.34,4.46,2.73,6.67,4.11s4.41,2.8,6.58,4.29a9.66,9.66,0,0,0,1.7.86c.6.26,1.2.5,1.81.75Z" style="fill:#263238"></path><path d="M304.6,140.92s-13.08-.76-15-2.29-15.12-8.94-15.68-10.49,1.69-3.19,6.42-1.89,13.5,5.45,14.1,5.56,10.81.06,11.81.24S304.6,140.92,304.6,140.92Z" style="fill:#eb9481"></path><path d="M298,142.31c-1.53-.51-3-1.08-4.53-1.65-.75-.29-1.5-.6-2.24-.91l-1.1-.5a11,11,0,0,1-1.07-.61q-4.06-2.56-8.12-5.17l-4-2.64-1-.67a9.41,9.41,0,0,1-1-.73,4.54,4.54,0,0,1-.86-.94,2.22,2.22,0,0,1-.44-1.28,1.25,1.25,0,0,1,.26-.7,1.45,1.45,0,0,1,.54-.45,3.9,3.9,0,0,1,1.22-.37,11.15,11.15,0,0,1,2.45,0,14,14,0,0,1,4.64,1.29,15.07,15.07,0,0,0-4.66-1,11.54,11.54,0,0,0-2.36.11,3.32,3.32,0,0,0-1.06.36.88.88,0,0,0-.5.75,1.66,1.66,0,0,0,.38.93,4.58,4.58,0,0,0,.78.81c.58.47,1.3.88,2,1.32l4,2.6c2.69,1.74,5.38,3.48,8,5.28a7.59,7.59,0,0,0,1,.63l1.06.53c.72.35,1.45.68,2.18,1Z" style="fill:#263238"></path><path d="M304.48,141.33s-11.2-3.32-13-4.75-11.13-5.92-11.65-7.36,1.57-3,6-1.76,9.62,2.67,10.18,2.77,9.32,1.65,10.25,1.82S304.48,141.33,304.48,141.33Z" style="fill:#eb9481"></path><path d="M301.22,141.36c-1.94-.71-3.87-1.45-5.8-2.18l-2.89-1.13-.72-.29c-.24-.1-.49-.23-.72-.35-.46-.25-.9-.51-1.35-.78-1.76-1.08-3.51-2.2-5.21-3.38-.85-.59-1.7-1.19-2.53-1.8-.42-.31-.83-.62-1.24-.95a9.14,9.14,0,0,1-1.2-1.08,1.3,1.3,0,0,1-.34-.95,1.32,1.32,0,0,1,.5-.86,3.75,3.75,0,0,1,1.52-.73,6.83,6.83,0,0,1,3.24,0c2,.5,4,1,6,1.57s4,1.08,6,1.64c1,.23,2,.44,3,.64s2,.45,3,.7c-2.06-.19-4.11-.45-6.17-.76l-6-1.6c-2-.51-4-1-6-1.51a6.09,6.09,0,0,0-2.91,0,3.25,3.25,0,0,0-1.26.58.57.57,0,0,0-.09.9,8.86,8.86,0,0,0,1.1,1c.39.33.8.64,1.21.95.82.62,1.66,1.22,2.5,1.81,1.7,1.18,3.39,2.36,5.12,3.47.44.28.87.55,1.31.8a11.71,11.71,0,0,0,1.38.66l2.85,1.22Z" style="fill:#263238"></path><path d="M377.16,144.53c-3.58,6.89-32.57,52.27-48.06,45.67C317,185,303.16,161.12,301,153.32l30.16-6.93c1.59,3.76,5,11.94,5.38,11.73,2.82-1.42,17.27-12.79,32.22-22.28C375.67,131.46,382,135.19,377.16,144.53Z" style="fill:#49ADCA"></path><path d="M339.75,165.11a21.52,21.52,0,0,0-.78-2.56,24.69,24.69,0,0,0-2.57-4.72c0-.07-.2,0-.16,0,.79,1.57,1.37,3.21,2,4.81.32.79.63,1.59.92,2.4s.63,1.64.86,2.46c0,0,.13,0,.12,0C340,166.73,340,165.92,339.75,165.11Z" style="fill:#263238"></path><path d="M368,160.72c-.52.4-1,.81-1.53,1.22a58.12,58.12,0,0,0,5.29-8.3c0-.06-.06-.12-.1-.07-6,8.68-17.7,22.85-18.93,24.29-.14.17.11.41.25.24,1.16-1.39,7.74-7.9,12.32-14.65a14,14,0,0,0,1.17-.85c.61-.5,1.21-1,1.78-1.55,1.14-1.08,2.25-2.2,3.36-3.32,0,0,0,0,0,0C370.4,158.77,369.2,159.75,368,160.72Z" style="fill:#263238"></path><path d="M374,136c.22,1.12,7.4,7.28,12.29,5.59,1.81-.63-.12-5.06-.12-5.06l2.63-9.93-12.27-8.45S373.87,135.55,374,136Z" style="fill:#eb9481"></path><path d="M375.53,124.67A19.63,19.63,0,0,0,386.27,136l2.48-9.38-12.26-8.45S376.06,121.11,375.53,124.67Z" style="fill:#263238"></path><path d="M402,111.36c2,16.7-7.74,19.8-11.34,20.23-3.27.4-14.45,1.32-18.19-15.07s3.37-22.62,10.8-23.92S400,94.66,402,111.36Z" style="fill:#eb9481"></path><path d="M398.2,107.54a11.11,11.11,0,0,1-1.16-.08,1.89,1.89,0,0,1-1.17-.31.6.6,0,0,1-.1-.72,1.48,1.48,0,0,1,1.4-.55,2.21,2.21,0,0,1,1.46.58A.63.63,0,0,1,398.2,107.54Z" style="fill:#263238"></path><path d="M386.91,109.25a10.29,10.29,0,0,0,1.1-.4,1.82,1.82,0,0,0,1-.61.61.61,0,0,0-.1-.72,1.49,1.49,0,0,0-1.5-.15,2.2,2.2,0,0,0-1.25.95A.64.64,0,0,0,386.91,109.25Z" style="fill:#263238"></path><path d="M389.88,113.13s-.08.07-.07.11c.21,1.13.27,2.45-.69,3,0,0,0,.08,0,.07C390.36,115.92,390.26,114.16,389.88,113.13Z" style="fill:#263238"></path><path d="M388.68,112.11c-1.85.16-1.4,3.83.31,3.68S390.22,112,388.68,112.11Z" style="fill:#263238"></path><path d="M388,112.39c-.3.25-.57.66-1,.74s-.82-.24-1.16-.58c0,0-.06,0-.06,0,.08.71.43,1.39,1.2,1.41s1.12-.67,1.21-1.4C388.24,112.47,388.1,112.29,388,112.39Z" style="fill:#263238"></path><path d="M396.57,112s.09,0,.1.09c.09,1.14.39,2.44,1.46,2.7a0,0,0,0,1,0,.06C396.85,114.82,396.47,113.1,396.57,112Z" style="fill:#263238"></path><path d="M397.45,110.7c1.81-.35,2.38,3.3.69,3.63S395.93,111,397.45,110.7Z" style="fill:#263238"></path><path d="M398.25,110.82c.32.15.66.46,1,.43s.63-.48.83-.9c0,0,.06,0,.06,0,.13.7,0,1.46-.64,1.7s-1.13-.31-1.41-1C398.05,111,398.12,110.76,398.25,110.82Z" style="fill:#263238"></path><path d="M391.29,122.59c.28.26.56.62,1,.65a3.08,3.08,0,0,0,1.22-.33s.08,0,.05.06a1.52,1.52,0,0,1-1.43.66,1.21,1.21,0,0,1-.93-1C391.16,122.58,391.25,122.55,391.29,122.59Z" style="fill:#263238"></path><path d="M395.7,117.83s.38,1.68.45,2.48c0,.08-.18.13-.45.17h0a3.86,3.86,0,0,1-3.84-1.11.08.08,0,0,1,.11-.12,5.9,5.9,0,0,0,3.58.7c0-.23-.75-2.87-.63-2.89a7.11,7.11,0,0,1,1.86.26c-.69-3.53-1.95-6.92-2.59-10.45a.11.11,0,0,1,.21-.07,58.08,58.08,0,0,1,3.27,11.13C397.74,118.4,396,117.94,395.7,117.83Z" style="fill:#263238"></path><path d="M395.45,120.1a4.53,4.53,0,0,1-1.53,1.69,2,2,0,0,1-1.2.29c-.92-.08-1.09-.88-1.05-1.59a5,5,0,0,1,.2-1.12A5.87,5.87,0,0,0,395.45,120.1Z" style="fill:#263238"></path><path d="M393.92,121.79a2,2,0,0,1-1.2.29c-.92-.08-1.09-.88-1.05-1.59A2.11,2.11,0,0,1,393.92,121.79Z" style="fill:#ff9abb"></path><path d="M374,117.6c3.16.21,3.54-7,3.54-7s13.23-3.07,13.71-14a18.46,18.46,0,0,0,9.89,9.52S400,94.18,390.39,92.43c0,0-12-3.57-18,6.13S371.9,117.46,374,117.6Z" style="fill:#263238"></path><path d="M391.27,95.75a11.81,11.81,0,0,1-.3,5,12.42,12.42,0,0,1-2.26,4.54,9.72,9.72,0,0,1-.85,1l-.44.47c-.15.14-.32.27-.48.41-.34.26-.66.54-1,.8s-.72.45-1.08.67l-.54.32-.58.26-1.15.52c-.79.28-1.6.51-2.4.73.75-.39,1.52-.68,2.25-1.07l1.08-.6.53-.3c.17-.11.33-.24.5-.36.33-.24.66-.48,1-.71s.6-.53.91-.8l.46-.4.4-.45a11.18,11.18,0,0,0,.79-.91,14.12,14.12,0,0,0,2.3-4.25,13.74,13.74,0,0,0,.61-2.37A14.46,14.46,0,0,0,391.27,95.75Z" style="fill:#263238"></path><path d="M375.81,117.25s-4.12-4.91-6.37-3.4,1.14,8.85,4,9.65a2.84,2.84,0,0,0,3.66-1.86Z" style="fill:#eb9481"></path><path d="M370.46,115.93s0,.06,0,.07c2,.63,3.2,2.35,4.09,4.16a1.57,1.57,0,0,0-2.38-.22c-.05,0,0,.12.06.1a1.75,1.75,0,0,1,2,.44,8.07,8.07,0,0,1,1.06,1.47c.1.17.41,0,.33-.15a.08.08,0,0,1,0,0C375.4,119.26,373.16,116,370.46,115.93Z" style="fill:#263238"></path></g></svg>
