<svg width="56" height="57" viewBox="0 0 56 57" fill="none" xmlns="http://www.w3.org/2000/svg">
<g clip-path="url(#clip0_19_135)">
<path d="M28 56.5C43.464 56.5 56 43.964 56 28.5C56 13.036 43.464 0.5 28 0.5C12.536 0.5 0 13.036 0 28.5C0 43.964 12.536 56.5 28 56.5Z" fill="#ECF0F1"/>
<path d="M23.1174 11.3007H32.8827V46.7922C32.8827 49.4777 30.6858 51.6747 28.0002 51.6747H28.0001C25.3146 51.6747 23.1174 49.4778 23.1174 46.7922V11.3007Z" fill="#21D0C3"/>
<path d="M32.8826 14.8998V15.4058H23.1173V14.8998H32.8826Z" fill="#15BDB2"/>
<path d="M23.5474 5.32532H32.4527C32.8578 5.32532 33.1892 5.65662 33.1892 6.06185V14.8999H22.8111V6.06174C22.8109 5.65662 23.1423 5.32532 23.5474 5.32532Z" fill="#FF5B62"/>
<path d="M32.6141 5.34338C32.9423 5.41743 33.1891 5.71209 33.1891 6.06176V14.8998H32.6141V5.34338Z" fill="#ED4C54"/>
<path d="M24.3153 5.89917C24.5366 5.89917 24.7178 6.10337 24.7178 6.3533V13.3742C24.7178 13.6241 24.5366 13.8283 24.3153 13.8283C24.0939 13.8283 23.9128 13.6241 23.9128 13.3742V6.3533C23.9128 6.10348 24.0939 5.89917 24.3153 5.89917ZM31.6847 5.89917C31.9061 5.89917 32.0873 6.10337 32.0873 6.3533V13.3742C32.0873 13.6241 31.9061 13.8283 31.6847 13.8283C31.4634 13.8283 31.2822 13.6241 31.2822 13.3742V6.3533C31.2822 6.10348 31.4634 5.89917 31.6847 5.89917ZM29.8423 5.89917C30.0637 5.89917 30.2448 6.10337 30.2448 6.3533V13.3742C30.2448 13.6241 30.0637 13.8283 29.8423 13.8283C29.6209 13.8283 29.4398 13.6241 29.4398 13.3742V6.3533C29.4398 6.10348 29.6209 5.89917 29.8423 5.89917ZM27.9999 5.89917C28.2213 5.89917 28.4024 6.10337 28.4024 6.3533V13.3742C28.4024 13.6241 28.2213 13.8283 27.9999 13.8283C27.7785 13.8283 27.5974 13.6241 27.5974 13.3742V6.3533C27.5974 6.10348 27.7785 5.89917 27.9999 5.89917ZM26.1575 5.89917C26.3788 5.89917 26.56 6.10337 26.56 6.3533V13.3742C26.56 13.6241 26.3788 13.8283 26.1575 13.8283C25.9361 13.8283 25.755 13.6241 25.755 13.3742V6.3533C25.755 6.10348 25.9361 5.89917 26.1575 5.89917Z" fill="#ED4C54"/>
<path d="M24.1579 20.0076H31.8424V46.7151C31.8424 48.8283 30.1136 50.5571 28.0003 50.5571H28.0001C25.8869 50.5571 24.1581 48.8283 24.1581 46.7151V20.0076H24.1579Z" fill="#ED4C54"/>
<path d="M24.7619 15.4058H25.4495V47.1854H24.7619V15.4058Z" fill="#EEF3F7"/>
<path d="M23.1174 22.8687H32.8827V40.3795H23.1174V22.8687Z" fill="#EEF3F7"/>
<path d="M24.7619 22.8687H25.4495V40.3795H24.7619V22.8687Z" fill="#FEFEFE"/>
<path d="M23.1174 22.8687H24.1576V40.3795H23.1174V22.8687Z" fill="#D9DADA"/>
<path d="M31.8421 22.8687H32.8824V40.3795H31.8421V22.8687Z" fill="#D9DADA"/>
<path d="M27.9082 26.4657H28.9734V27.8943H30.402V28.9595H28.9734V30.388H27.9082V28.9595H26.4797V27.8943H27.9082V26.4657Z" fill="#FF5B62"/>
<path d="M26.4943 31.3976H31.8421V31.9378H26.4943V31.3976Z" fill="#D9DADA"/>
<path d="M26.4943 33.0746H31.8421V33.6148H26.4943V33.0746Z" fill="#D9DADA"/>
</g>
<defs>
<clipPath id="clip0_19_135">
<rect width="56" height="56" fill="white" transform="translate(0 0.5)"/>
</clipPath>
</defs>
</svg>
