<svg width="81" height="80" viewBox="0 0 81 80" fill="none" xmlns="http://www.w3.org/2000/svg">
<rect x="0.5" width="80" height="80" rx="16" fill="#FEC091"/>
<g clip-path="url(#clip0_16_62)">
<path d="M35.502 44.5614C35.502 44.5614 37.998 47.7489 41.187 44.5614C44.28 41.5614 46.53 44.5614 46.53 44.5614L53.9805 59.2464C54.1965 60.0459 53.721 60.8679 52.9215 61.0824H28.176C27.3765 60.8679 26.901 60.0474 27.1155 59.2464L35.502 44.5614ZM24.0915 58.4949L36.06 38.3529V38.3154L36.081 26.5119H35.2545C34.0155 26.5119 33.0075 25.5054 33.0075 24.2634C33.0075 23.0229 34.0155 22.0164 35.2545 22.0164H47.247C48.4875 22.0164 49.494 23.0229 49.494 24.2634C49.494 25.5054 48.4875 26.5119 47.247 26.5119H46.524L46.548 38.3184L56.91 58.4949C57.552 60.8934 56.1285 63.3579 53.7315 63.9999H27.27C24.87 63.3579 23.4465 60.8934 24.0915 58.4949ZM27.6705 62.4969L53.3325 62.4684C54.93 62.0394 55.878 60.3954 55.4505 58.7994L45.03 38.3754L44.9985 25.0134H47.2455C47.658 25.0134 47.994 24.6774 47.994 24.2634C47.994 23.8494 47.658 23.5149 47.2455 23.5149H35.253C34.8405 23.5149 34.506 23.8509 34.506 24.2634C34.506 24.6774 34.8405 25.0134 35.253 25.0134H37.5L37.4625 38.3259L25.554 58.8249C25.125 60.4254 26.0745 62.0694 27.6705 62.4969ZM39.78 19.7679C39.78 20.5959 39.108 21.2679 38.28 21.2679C37.452 21.2679 36.78 20.5959 36.78 19.7679C36.78 18.9399 37.4505 18.2679 38.28 18.2679C39.1095 18.2679 39.78 18.9384 39.78 19.7679ZM38.28 16.0179C37.038 16.0179 36.03 15.0114 36.03 13.7679C36.03 12.5244 37.038 11.5179 38.28 11.5179C39.522 11.5179 40.53 12.5244 40.53 13.7679C40.53 15.0114 39.522 16.0179 38.28 16.0179ZM44.28 19.7679C43.4505 19.7679 42.78 19.0959 42.78 18.2679C42.78 17.4399 43.4505 16.7679 44.28 16.7679C45.1095 16.7679 45.78 17.4399 45.78 18.2679C45.78 19.0959 45.1095 19.7679 44.28 19.7679Z" fill="#2D2D2D"/>
</g>
<defs>
<clipPath id="clip0_16_62">
<rect width="48" height="48" fill="white" transform="matrix(-1 0 0 1 64.5 16)"/>
</clipPath>
</defs>
</svg>
