<svg width="153" height="44" viewBox="0 0 153 44" fill="none" xmlns="http://www.w3.org/2000/svg">
<path d="M44.1787 24.9312V29.2984H51.2216V33.358H44.1787V38.0943H52.1442V42.3077H38.9196V20.7178H52.1442V24.9312H44.1787ZM63.647 20.7178C65.9229 20.7178 67.9117 21.1688 69.6135 22.071C71.3152 22.9731 72.6274 24.2443 73.5501 25.8846C74.4932 27.5043 74.9648 29.3804 74.9648 31.5127C74.9648 33.6246 74.4932 35.5006 73.5501 37.1409C72.6274 38.7811 71.305 40.0523 69.5827 40.9545C67.8809 41.8566 65.9024 42.3077 63.647 42.3077H55.5585V20.7178H63.647ZM63.3087 37.756C65.2975 37.756 66.8455 37.2126 67.9527 36.1259C69.0599 35.0393 69.6135 33.5015 69.6135 31.5127C69.6135 29.5239 69.0599 27.9759 67.9527 26.8687C66.8455 25.7616 65.2975 25.208 63.3087 25.208H60.8176V37.756H63.3087ZM83.1629 24.9312V29.2984H90.2058V33.358H83.1629V38.0943H91.1284V42.3077H77.9038V20.7178H91.1284V24.9312H83.1629ZM107.983 38.4941H99.9248L98.6331 42.3077H93.128L100.94 20.7178H107.029L114.841 42.3077H109.274L107.983 38.4941ZM106.629 34.4344L103.954 26.5304L101.309 34.4344H106.629ZM125.03 42.523C123.451 42.523 122.037 42.2667 120.786 41.7541C119.535 41.2415 118.531 40.4829 117.772 39.4782C117.034 38.4736 116.644 37.2639 116.603 35.8492H122.201C122.283 36.6488 122.559 37.2639 123.031 37.6944C123.503 38.1045 124.118 38.3095 124.876 38.3095C125.655 38.3095 126.271 38.1353 126.722 37.7867C127.173 37.4177 127.398 36.9153 127.398 36.2797C127.398 35.7466 127.214 35.3058 126.845 34.9573C126.496 34.6087 126.055 34.3217 125.522 34.0961C125.01 33.8706 124.272 33.6143 123.308 33.3273C121.914 32.8967 120.776 32.4661 119.894 32.0355C119.012 31.605 118.254 30.9694 117.618 30.1287C116.983 29.2881 116.665 28.1912 116.665 26.838C116.665 24.8287 117.393 23.2602 118.848 22.1325C120.304 20.9843 122.201 20.4102 124.538 20.4102C126.916 20.4102 128.833 20.9843 130.289 22.1325C131.745 23.2602 132.524 24.8389 132.627 26.8687H126.937C126.896 26.1716 126.64 25.6283 126.168 25.2387C125.696 24.8287 125.092 24.6236 124.354 24.6236C123.718 24.6236 123.205 24.7979 122.816 25.1465C122.426 25.4745 122.231 25.9563 122.231 26.5919C122.231 27.289 122.559 27.8324 123.216 28.2219C123.872 28.6115 124.897 29.0318 126.291 29.4829C127.685 29.9545 128.813 30.4055 129.674 30.8361C130.556 31.2667 131.314 31.892 131.95 32.7122C132.586 33.5323 132.903 34.5882 132.903 35.8799C132.903 37.1101 132.586 38.2275 131.95 39.2322C131.335 40.2369 130.433 41.0365 129.244 41.6311C128.054 42.2257 126.65 42.523 125.03 42.523ZM141.399 24.9312V29.2984H148.442V33.358H141.399V38.0943H149.364V42.3077H136.14V20.7178H149.364V24.9312H141.399Z" fill="black"/>
<path d="M37.0128 11.282V42.8718V44H29.1154V25.9487L22.3461 44H15.5769L9.93589 27.0769V44H0.910248V11.282H9.93589L18.9615 32.7179L27.9872 11.282H37.0128Z" fill="#49ADCA"/>
<path d="M45.5228 17.7836H37.0992V26.4009H29.2565V17.7836H20.8329V10.3766H29.2565V1.7109H37.0992V10.3766H45.5228V17.7836Z" fill="#FC574B"/>
</svg>
