<svg width="81" height="80" viewBox="0 0 81 80" fill="none" xmlns="http://www.w3.org/2000/svg">
<rect x="0.5" width="80" height="80" rx="16" fill="#92BDF6"/>
<g clip-path="url(#clip0_16_74)">
<path d="M60.7299 41.8974L38.4694 19.8908L38.4754 19.8972C35.9663 17.3869 32.6624 16.125 29.3731 16.1272C26.0838 16.125 22.7797 17.3869 20.2703 19.8973C17.7594 22.4074 16.4983 25.7106 16.5 29.0002C16.4983 32.2899 17.7594 35.5937 20.2704 38.1033L42.5303 60.1093L42.5243 60.1029C45.0342 62.6131 48.3374 63.8743 51.6267 63.8729C54.9164 63.8743 58.2195 62.6131 60.7294 60.1035C63.2404 57.5925 64.5015 54.288 64.5001 50.9991C64.5015 47.7101 63.2407 44.407 60.7299 41.8974ZM23.9629 32.7064C21.8305 30.5745 21.8305 27.0602 23.9898 24.9014C25.0352 23.8556 26.4256 23.2802 27.9051 23.2802L23.9629 32.7064ZM58.5612 57.9354C56.6425 59.8526 54.1418 60.8055 51.6266 60.8063C49.1117 60.8055 46.6106 59.8526 44.6917 57.9346L44.6867 57.9298L44.686 57.9283L34.4291 47.7886C34.4592 47.591 34.5046 47.3593 34.5701 47.1021C34.8075 46.152 35.2853 44.8724 36.0063 43.5191C37.0865 41.4856 38.7139 39.2808 40.865 37.581C43.006 35.8919 45.6326 34.6845 48.8883 34.5017L58.5574 44.0603L58.562 44.0639C60.4792 45.9832 61.4321 48.4836 61.4343 50.9988C61.4321 53.5142 60.4799 56.0153 58.5612 57.9354Z" fill="#2D2D2D"/>
</g>
<defs>
<clipPath id="clip0_16_74">
<rect width="48" height="48" fill="white" transform="translate(16.5 16)"/>
</clipPath>
</defs>
</svg>
