<svg width="44" height="44" viewBox="0 0 44 44" fill="none" xmlns="http://www.w3.org/2000/svg">
<rect width="44" height="44" rx="22" fill="#49ADCA" fill-opacity="0.2"/>
<path d="M18.3803 18.8532C19.0763 20.3028 20.0251 21.6615 21.2266 22.8631C22.4282 24.0646 23.7869 25.0134 25.2365 25.7094C25.3612 25.7693 25.4235 25.7992 25.5024 25.8222C25.7828 25.904 26.127 25.8453 26.3644 25.6752C26.4313 25.6274 26.4884 25.5702 26.6027 25.4559C26.9523 25.1063 27.1271 24.9315 27.3029 24.8172C27.9658 24.3862 28.8204 24.3862 29.4833 24.8172C29.6591 24.9315 29.8339 25.1063 30.1835 25.4559L30.3783 25.6508C30.9098 26.1822 31.1755 26.448 31.3198 26.7333C31.6069 27.3009 31.6069 27.9712 31.3198 28.5387C31.1755 28.8241 30.9098 29.0898 30.3783 29.6213L30.2207 29.7789C29.6911 30.3085 29.4263 30.5733 29.0662 30.7756C28.6667 31 28.0462 31.1614 27.588 31.16C27.1751 31.1588 26.8928 31.0787 26.3284 30.9185C23.295 30.0575 20.4326 28.433 18.0447 26.045C15.6567 23.6571 14.0322 20.7947 13.1712 17.7613C13.011 17.1969 12.9309 16.9146 12.9297 16.5017C12.9283 16.0435 13.0897 15.423 13.3141 15.0235C13.5164 14.6634 13.7812 14.3986 14.3108 13.869L14.4684 13.7114C14.9999 13.1799 15.2656 12.9142 15.551 12.7699C16.1185 12.4828 16.7888 12.4828 17.3564 12.7699C17.6417 12.9142 17.9075 13.1799 18.4389 13.7114L18.6338 13.9062C18.9834 14.2559 19.1582 14.4307 19.2725 14.6064C19.7035 15.2693 19.7035 16.1239 19.2725 16.7868C19.1582 16.9626 18.9834 17.1374 18.6338 17.487C18.5195 17.6013 18.4623 17.6584 18.4145 17.7253C18.2445 17.9627 18.1858 18.307 18.2675 18.5873C18.2905 18.6662 18.3204 18.7285 18.3803 18.8532Z" stroke="#49ADCA" stroke-width="2" stroke-linecap="round" stroke-linejoin="round"/>
</svg>
