<svg width="13" height="13" viewBox="0 0 13 13" fill="none" xmlns="http://www.w3.org/2000/svg">
<path d="M5.46887 1.42705C5.76822 0.505739 7.07163 0.50574 7.37098 1.42705L8.10378 3.68237C8.23765 4.0944 8.62161 4.37336 9.05483 4.37336L11.4262 4.37336C12.3949 4.37336 12.7977 5.61297 12.014 6.18237L10.0955 7.57624C9.74502 7.83088 9.59837 8.28225 9.73224 8.69427L10.465 10.9496C10.7644 11.8709 9.70991 12.637 8.9262 12.0676L7.00771 10.6738C6.65722 10.4191 6.18262 10.4191 5.83214 10.6738L3.91364 12.0676C3.12993 12.637 2.07545 11.8709 2.3748 10.9496L3.1076 8.69427C3.24148 8.28225 3.09482 7.83088 2.74433 7.57624L0.825839 6.18237C0.0421252 5.61297 0.444901 4.37336 1.41362 4.37336L3.78501 4.37336C4.21824 4.37336 4.60219 4.0944 4.73607 3.68237L5.46887 1.42705Z" fill="black"/>
</svg>
